<svg width="28" height="28" viewBox="0 0 28 28" fill="none" xmlns="http://www.w3.org/2000/svg">
<path d="M13.8142 4.66663C12.9957 4.66663 12.2107 4.99178 11.6319 5.57056C11.0531 6.14935 10.7279 6.93435 10.7279 7.75287V9.60461H7.76516C7.64232 9.604 7.52366 9.64919 7.43235 9.73137C7.34104 9.81354 7.28364 9.9268 7.27136 10.049C5.81465 22.6656 5.81466 22.8137 5.83934 22.8878C5.8425 22.9494 5.85779 23.0098 5.88433 23.0655C5.91088 23.1213 5.94815 23.1712 5.99402 23.2125C6.03989 23.2538 6.09346 23.2856 6.15165 23.3061C6.20984 23.3267 6.27152 23.3355 6.33314 23.3322H21.2952C21.3666 23.3373 21.4381 23.3242 21.5029 23.2939C21.5677 23.2637 21.6237 23.2174 21.6656 23.1594C21.7146 23.1123 21.7515 23.0539 21.773 22.9894C21.7945 22.9249 21.8 22.8561 21.789 22.789L20.357 10.049C20.3447 9.9268 20.2873 9.81354 20.196 9.73137C20.1047 9.64919 19.9861 9.604 19.8632 9.60461H16.9004V7.75287C16.9004 6.93435 16.5753 6.14935 15.9965 5.57056C15.4177 4.99178 14.6327 4.66663 13.8142 4.66663ZM11.7155 7.75287C11.7155 7.19627 11.9367 6.66247 12.3302 6.2689C12.7238 5.87533 13.2576 5.65422 13.8142 5.65422C14.3708 5.65422 14.9046 5.87533 15.2982 6.2689C15.6917 6.66247 15.9128 7.19627 15.9128 7.75287V9.60461H11.7155V7.75287ZM19.4435 10.5922L20.7521 22.3446H6.87632C7.04915 20.5916 7.71578 14.8142 8.18489 10.5922H10.7279V14.2463H11.7155V10.5922H15.9128V14.2463H16.9004V10.5922H19.4435Z" fill="#353B40" stroke="#353B40" stroke-width="0.4"/>
</svg>
