<svg width="28" height="28" viewBox="0 0 28 28" fill="none" xmlns="http://www.w3.org/2000/svg">
<path d="M13.9993 4.66669C8.85295 4.66669 4.66602 8.85362 4.66602 14C4.66602 19.1464 8.85295 23.3334 13.9993 23.3334C19.1458 23.3334 23.3327 19.1464 23.3327 14C23.3327 8.85362 19.1458 4.66669 13.9993 4.66669ZM10.5301 10.2891C11.0351 7.95575 12.3123 6.26362 14.0782 5.60375C16.0882 5.62289 17.931 6.34855 19.3688 7.54742C17.7355 7.58569 15.0162 7.99962 14.2868 10.2382C12.8999 10.1412 11.6408 10.178 10.5301 10.2891ZM20.3348 8.50175C21.221 9.52142 21.8645 10.7544 22.1782 12.1142C19.6586 11.0936 17.329 10.5565 15.2528 10.325C16.132 8.35615 19.5009 8.44715 20.3348 8.50175ZM11.8793 5.88189C10.7205 6.94075 9.90575 8.50175 9.55295 10.41C9.12315 10.4734 8.71995 10.5462 8.34755 10.6251C8.21362 9.78835 7.71195 9.22975 7.32742 8.91709C8.44928 7.44802 10.0411 6.36209 11.8793 5.88189ZM5.60682 14.1442C5.60588 14.0957 5.59935 14.0486 5.59935 14C5.59935 13.4512 5.65628 12.916 5.75708 12.3961C6.02122 12.2836 6.54015 12.082 7.27562 11.8725C7.01662 12.5618 6.46035 13.3266 5.60682 14.1442ZM6.06462 11.2677C6.25595 10.7138 6.50375 10.1883 6.80102 9.69362C7.05722 9.91622 7.36988 10.2872 7.43708 10.83C7.43755 10.8337 7.43708 10.8374 7.43708 10.8412C6.88548 10.9868 6.42535 11.1366 6.06462 11.2677ZM5.71182 15.309C7.23082 13.9879 8.09882 12.7494 8.31768 11.6112C8.65788 11.536 9.02468 11.4651 9.41948 11.4021C9.10122 14.8172 10.1937 19.1749 13.3796 22.3688C9.47548 22.0818 6.31195 19.1194 5.71182 15.309ZM14.7442 22.3622C11.1531 19.2841 9.97388 14.7182 10.3677 11.2733C11.4663 11.1506 12.7281 11.1006 14.1244 11.1874C14.0721 14.3192 18.8466 17.0674 21.3032 18.1333C19.9736 20.4732 17.5577 22.1135 14.7442 22.3622ZM21.7227 17.2984C19.2461 16.2377 15.0853 13.713 15.0563 11.2635C17.2305 11.4894 19.6955 12.0634 22.3587 13.2039C22.3839 13.4662 22.3993 13.7312 22.3993 14C22.3993 15.1704 22.1572 16.2848 21.7227 17.2984Z" fill="#353B40" stroke="#353B40" stroke-width="0.3"/>
</svg>
