<svg width="48" height="48" viewBox="0 0 48 48" fill="none" xmlns="http://www.w3.org/2000/svg">
<path d="M37.0635 20.6316H12.1919C11.0805 20.6305 10.0149 20.1885 9.22904 19.4026C8.44315 18.6167 8.00114 17.5512 8 16.4397V12.1919C8.00114 11.0805 8.44315 10.0149 9.22904 9.22904C10.0149 8.44315 11.0805 8.00114 12.1919 8H42L37.0635 20.6316ZM12.1919 10.1519C11.6509 10.1519 11.132 10.3668 10.7494 10.7494C10.3668 11.132 10.1519 11.6509 10.1519 12.1919V16.4397C10.153 16.9804 10.3683 17.4987 10.7507 17.881C11.133 18.2633 11.6512 18.4786 12.1919 18.4797H35.5916L38.841 10.1519H12.1919Z" fill="#353B40"/>
<path d="M9.07595 36.9215H8V34.7696H9.07595C12.249 34.7657 15.3107 33.5997 17.6825 31.492C20.0543 29.3842 21.572 26.4807 21.9486 23.3301L22.0734 22.2628L24.2253 22.5167L24.0962 23.584C23.6581 27.2599 21.8873 30.6475 19.1192 33.1055C16.3511 35.5635 12.7778 36.9212 9.07595 36.9215Z" fill="#353B40"/>
<path d="M10.1519 28.9423H8V42.198H10.1519V28.9423Z" fill="#353B40"/>
<path d="M23.1148 24.5352H22.9513C21.6536 24.4997 20.4201 23.9631 19.5094 23.0379C18.5987 22.1128 18.0816 20.871 18.0665 19.5729V18.4797H28.1761V19.5729C28.1491 20.8976 27.6041 22.1591 26.6579 23.0867C25.7118 24.0143 24.4399 24.5343 23.1148 24.5352ZM20.4508 20.6316C20.6678 21.1406 21.0267 21.5763 21.4845 21.8869C21.9424 22.1975 22.48 22.3698 23.0331 22.3833H23.1062C23.6714 22.3817 24.2237 22.2151 24.6955 21.9039C25.1672 21.5927 25.5378 21.1505 25.7617 20.6316H20.4508Z" fill="#353B40"/>
<path d="M37.0635 20.6316H12.1919C11.0805 20.6305 10.0149 20.1885 9.22904 19.4026C8.44315 18.6167 8.00114 17.5512 8 16.4397V12.1919C8.00114 11.0805 8.44315 10.0149 9.22904 9.22904C10.0149 8.44315 11.0805 8.00114 12.1919 8H42L37.0635 20.6316ZM12.1919 10.1519C11.6509 10.1519 11.132 10.3668 10.7494 10.7494C10.3668 11.132 10.1519 11.6509 10.1519 12.1919V16.4397C10.153 16.9804 10.3683 17.4987 10.7507 17.881C11.133 18.2633 11.6512 18.4786 12.1919 18.4797H35.5916L38.841 10.1519H12.1919Z" stroke="#353B40" stroke-width="0.3"/>
<path d="M9.07595 36.9215H8V34.7696H9.07595C12.249 34.7657 15.3107 33.5997 17.6825 31.492C20.0543 29.3842 21.572 26.4807 21.9486 23.3301L22.0734 22.2628L24.2253 22.5167L24.0962 23.584C23.6581 27.2599 21.8873 30.6475 19.1192 33.1055C16.3511 35.5635 12.7778 36.9212 9.07595 36.9215Z" stroke="#353B40" stroke-width="0.3"/>
<path d="M10.1519 28.9423H8V42.198H10.1519V28.9423Z" stroke="#353B40" stroke-width="0.3"/>
<path d="M23.1148 24.5352H22.9513C21.6536 24.4997 20.4201 23.9631 19.5094 23.0379C18.5987 22.1128 18.0816 20.871 18.0665 19.5729V18.4797H28.1761V19.5729C28.1491 20.8976 27.6041 22.1591 26.6579 23.0867C25.7118 24.0143 24.4399 24.5343 23.1148 24.5352ZM20.4508 20.6316C20.6678 21.1406 21.0267 21.5763 21.4845 21.8869C21.9424 22.1975 22.48 22.3698 23.0331 22.3833H23.1062C23.6714 22.3817 24.2237 22.2151 24.6955 21.9039C25.1672 21.5927 25.5378 21.1505 25.7617 20.6316H20.4508Z" stroke="#353B40" stroke-width="0.3"/>
</svg>
