<svg width="48" height="48" viewBox="0 0 48 48" fill="none" xmlns="http://www.w3.org/2000/svg">
<path d="M40 26.1034C39.9966 25.2539 39.734 24.4255 39.2472 23.7292C38.7604 23.0329 38.0726 22.5018 37.2759 22.2069L36.4483 13.069C36.3552 12.2276 35.9558 11.4498 35.3263 10.8839C34.6967 10.3179 33.881 10.0033 33.0345 10H14.9655C14.119 10.0033 13.3033 10.3179 12.6737 10.8839C12.0442 11.4498 11.6448 12.2276 11.5517 13.069L10.7241 22.2069C9.92736 22.5018 9.23959 23.0329 8.75279 23.7292C8.26598 24.4255 8.00335 25.2539 8 26.1034V34.7931H10.069V38.8276H18V34.7931H30V38.8276H37.931V34.7931H40V26.1034ZM14.9655 12.069H33.0345C33.3716 12.0757 33.6947 12.2057 33.9424 12.4345C34.1902 12.6632 34.3457 12.9748 34.3793 13.3103L35.1379 21.9655H12.8621L13.6207 13.3103C13.6543 12.9748 13.8098 12.6632 14.0576 12.4345C14.3054 12.2057 14.6284 12.0757 14.9655 12.069ZM15.931 36.7586H12.1379V34.7931H15.931V36.7586ZM35.8621 36.7586H32.069V34.7931H35.8621V36.7586ZM37.931 32.7241H10.069V26.1034C10.069 25.5547 10.2869 25.0285 10.675 24.6405C11.063 24.2525 11.5892 24.0345 12.1379 24.0345H35.8621C36.4108 24.0345 36.937 24.2525 37.3251 24.6405C37.7131 25.0285 37.931 25.5547 37.931 26.1034V32.7241Z" fill="#353B40"/>
<path d="M19.7687 26.8276H13.0101V28.8965H19.7687V26.8276Z" fill="#353B40"/>
<path d="M35.099 26.8276H28.3403V28.8965H35.099V26.8276Z" fill="#353B40"/>
<path d="M40 26.1034C39.9966 25.2539 39.734 24.4255 39.2472 23.7292C38.7604 23.0329 38.0726 22.5018 37.2759 22.2069L36.4483 13.069C36.3552 12.2276 35.9558 11.4498 35.3263 10.8839C34.6967 10.3179 33.881 10.0033 33.0345 10H14.9655C14.119 10.0033 13.3033 10.3179 12.6737 10.8839C12.0442 11.4498 11.6448 12.2276 11.5517 13.069L10.7241 22.2069C9.92736 22.5018 9.23959 23.0329 8.75279 23.7292C8.26598 24.4255 8.00335 25.2539 8 26.1034V34.7931H10.069V38.8276H18V34.7931H30V38.8276H37.931V34.7931H40V26.1034ZM14.9655 12.069H33.0345C33.3716 12.0757 33.6947 12.2057 33.9424 12.4345C34.1902 12.6632 34.3457 12.9748 34.3793 13.3103L35.1379 21.9655H12.8621L13.6207 13.3103C13.6543 12.9748 13.8098 12.6632 14.0576 12.4345C14.3054 12.2057 14.6284 12.0757 14.9655 12.069ZM15.931 36.7586H12.1379V34.7931H15.931V36.7586ZM35.8621 36.7586H32.069V34.7931H35.8621V36.7586ZM37.931 32.7241H10.069V26.1034C10.069 25.5547 10.2869 25.0285 10.675 24.6405C11.063 24.2525 11.5892 24.0345 12.1379 24.0345H35.8621C36.4108 24.0345 36.937 24.2525 37.3251 24.6405C37.7131 25.0285 37.931 25.5547 37.931 26.1034V32.7241Z" stroke="#353B40" stroke-width="0.2"/>
<path d="M19.7687 26.8276H13.0101V28.8965H19.7687V26.8276Z" stroke="#353B40" stroke-width="0.2"/>
<path d="M35.099 26.8276H28.3403V28.8965H35.099V26.8276Z" stroke="#353B40" stroke-width="0.2"/>
</svg>
