<svg width="64" height="64" viewBox="0 0 64 64" fill="none" xmlns="http://www.w3.org/2000/svg">
<circle cx="35" cy="32.918" r="20.5" stroke="#C4C4C4"/>
<path d="M11.598 17.098C12.424 17.098 13.152 16.902 13.782 16.524V15.6C13.18 15.992 12.508 16.188 11.752 16.188C10.982 16.188 10.324 15.936 9.806 15.446C9.288 14.942 9.036 14.312 9.036 13.556C9.036 12.786 9.288 12.156 9.806 11.666C10.324 11.162 10.982 10.91 11.752 10.91C12.41 10.91 13.04 11.078 13.656 11.428V10.49C13.082 10.168 12.396 10 11.612 10C10.59 10 9.722 10.336 9.036 11.022C8.35 11.694 8 12.534 8 13.542C8 14.564 8.336 15.404 9.022 16.09C9.708 16.762 10.576 17.098 11.598 17.098Z" fill="#353B40"/>
<path d="M26 23.918L42 30.318L34 31.918L32.4 39.918L26 23.918Z" fill="#353B40"/>
</svg>
