<svg width="36" height="36" viewBox="0 0 36 36" fill="none" xmlns="http://www.w3.org/2000/svg">
<path d="M27.2916 14.0085C24.2039 11.7146 21.0019 10.5 18 10.5C10.824 10.5 5.169 17.1967 4.9317 17.481L4.5 18L4.9317 18.519C6.05696 19.8048 7.32325 20.9691 8.70839 21.9915C11.7961 24.2854 14.9981 25.5 18 25.5C25.176 25.5 30.831 18.8033 31.0683 18.519L31.5 18L31.0683 17.481C29.943 16.1952 28.6767 15.0309 27.2916 14.0085ZM18 23.8438C12.7395 23.8438 8.17662 19.5182 6.73856 18C8.16804 16.4818 12.7281 12.1562 18 12.1562C23.2719 12.1562 27.8234 16.4818 29.2614 18C27.8262 19.521 23.2719 23.8438 18 23.8438Z" fill="#353B40"/>
<path d="M17.9998 13.1638C17.0123 13.1774 16.051 13.4726 15.2368 14.0122C14.4225 14.5518 13.7916 15.3118 13.4235 16.1966C13.0553 17.0814 12.9662 18.0515 13.1675 18.9851C13.3688 19.9186 13.8514 20.7739 14.5546 21.4434C15.2579 22.1128 16.1504 22.5666 17.1201 22.7477C18.0897 22.9288 19.0931 22.8291 20.0042 22.4611C20.9153 22.0931 21.6934 21.4733 22.2407 20.6795C22.788 19.8858 23.0801 18.9536 23.0802 18C23.0696 16.7085 22.5287 15.4739 21.5762 14.5672C20.6236 13.6604 19.3374 13.1557 17.9998 13.1638ZM17.9998 21.1689C17.3511 21.1553 16.7211 20.9571 16.1887 20.599C15.6564 20.2409 15.2454 19.739 15.0074 19.1562C14.7694 18.5735 14.7149 17.9358 14.8509 17.3233C14.9869 16.7108 15.3072 16.1507 15.7716 15.7133C16.2361 15.2759 16.824 14.9806 17.4616 14.8647C18.0992 14.7487 18.7581 14.8172 19.3555 15.0614C19.953 15.3057 20.4624 15.7149 20.8199 16.2377C21.1773 16.7605 21.3669 17.3736 21.3648 18C21.3542 18.8522 20.994 19.6656 20.3632 20.2617C19.7324 20.8578 18.8825 21.1881 17.9998 21.18V21.1689Z" fill="#353B40"/>
</svg>
