<svg width="82" height="80" viewBox="0 0 82 80" fill="none" xmlns="http://www.w3.org/2000/svg">
<path d="M64.5 21H54.5V34L58.5 32L60 34L64.5 32.5V21Z" fill="#C4C4C4"/>
<path fill-rule="evenodd" clip-rule="evenodd" d="M53.0251 42.3397C53.0513 42.3248 53.0847 42.3339 53.0998 42.3601L58.2062 51.2511C58.2135 51.2638 58.2154 51.2789 58.2115 51.293C58.2076 51.3071 58.1982 51.3191 58.1854 51.3263L47.5334 57.3085C47.5207 57.3157 47.5057 57.3175 47.4917 57.3135C47.4777 57.3096 47.4658 57.3003 47.4587 57.2876L42.4621 48.3965C42.4473 48.3702 42.4566 48.3368 42.4829 48.3219L53.0251 42.3397ZM42.5846 48.3904L47.5275 57.186L58.0834 51.2577L53.0318 42.4621L42.5846 48.3904Z" fill="#C4C4C4"/>
<path fill-rule="evenodd" clip-rule="evenodd" d="M48.1799 33.7727C48.1939 33.7766 48.2059 33.7858 48.2131 33.7985L53.0999 42.3602C53.1071 42.3729 53.109 42.3879 53.1051 42.4019C53.1013 42.416 53.092 42.4279 53.0793 42.4351L42.5371 48.4174C42.5244 48.4246 42.5094 48.4264 42.4953 48.4225C42.4812 48.4186 42.4693 48.4092 42.4621 48.3965L37.6303 39.8349C37.6154 39.8086 37.6247 39.7752 37.6509 39.7602L48.1382 33.778C48.1509 33.7708 48.1658 33.7689 48.1799 33.7727ZM37.7528 39.8285L42.5307 48.2948L52.9772 42.3668L48.1449 33.9005L37.7528 39.8285Z" fill="#C4C4C4"/>
<path fill-rule="evenodd" clip-rule="evenodd" d="M58.1316 51.2306C58.158 51.2158 58.1913 51.2251 58.2063 51.2513L63.4225 60.4168C63.4374 60.4431 63.4283 60.4765 63.402 60.4915L51.7068 67.1873C51.6806 67.2023 51.6471 67.1933 51.632 67.1672L47.459 59.9775C47.4517 59.9649 47.4497 59.9498 47.4535 59.9357C47.4573 59.9216 47.4666 59.9096 47.4793 59.9023L48.5848 59.2709L47.4588 57.2878C47.4516 57.2751 47.4497 57.2601 47.4536 57.246C47.4575 57.2319 47.4669 57.22 47.4796 57.2128L58.1316 51.2306ZM47.5815 57.2815L48.7073 59.2643C48.7223 59.2906 48.7131 59.324 48.6868 59.339L47.5817 59.9702L51.6996 67.0649L63.2999 60.4235L58.1378 51.353L47.5815 57.2815Z" fill="#C4C4C4"/>
<path fill-rule="evenodd" clip-rule="evenodd" d="M45.0637 59.024C45.0896 59.0094 45.1224 59.0181 45.1377 59.0436L46.099 60.6452L47.4805 59.9016C47.5066 59.8876 47.5391 59.8968 47.554 59.9224L51.727 67.1121C51.7343 67.1247 51.7363 67.1398 51.7325 67.1539C51.7287 67.168 51.7195 67.18 51.7068 67.1873L39.7918 73.9928C39.7792 74 39.7641 74.0019 39.75 73.998C39.736 73.9942 39.724 73.9849 39.7168 73.9722L34.6104 64.9714C34.6032 64.9587 34.6014 64.9437 34.6053 64.9296C34.6092 64.9156 34.6185 64.9036 34.6313 64.8965L45.0637 59.024ZM34.7331 64.9651L39.7852 73.8701L51.6042 67.1194L47.4857 60.0235L46.105 60.7666C46.0791 60.7805 46.0469 60.7717 46.0318 60.7466L45.071 59.1459L34.7331 64.9651Z" fill="#C4C4C4"/>
<path fill-rule="evenodd" clip-rule="evenodd" d="M32.8062 37.1207C32.8202 37.1246 32.8321 37.134 32.8392 37.1467L37.6711 45.7633C37.6858 45.7895 37.6767 45.8227 37.6506 45.8377L27.1633 51.8748C27.1506 51.8821 27.1356 51.8841 27.1215 51.8802C27.1074 51.8764 27.0954 51.8671 27.0882 51.8545L22.1465 43.1829C22.1393 43.1703 22.1374 43.1552 22.1413 43.1412C22.1452 43.1271 22.1545 43.1152 22.1672 43.108L32.7644 37.1257C32.7771 37.1186 32.7921 37.1167 32.8062 37.1207ZM22.2692 43.1765L27.1563 51.7522L37.5488 45.7697L32.7704 37.2484L22.2692 43.1765Z" fill="#C4C4C4"/>
<path fill-rule="evenodd" clip-rule="evenodd" d="M37.6378 45.7372C37.6519 45.7411 37.6639 45.7505 37.6711 45.7633L45.1385 59.0449C45.1533 59.0714 45.144 59.1048 45.1175 59.1197L34.6852 64.9921C34.6589 65.0069 34.6256 64.9978 34.6106 64.9716L27.0883 51.8546C27.0732 51.8283 27.0823 51.7948 27.1085 51.7797L37.5958 45.7426C37.6085 45.7353 37.6236 45.7334 37.6378 45.7372ZM27.2108 51.8475L34.6787 64.8698L45.0159 59.0509L37.6025 45.8654L27.2108 51.8475Z" fill="#C4C4C4"/>
<path fill-rule="evenodd" clip-rule="evenodd" d="M20.2873 15.1675C20.3013 15.1714 20.3132 15.1808 20.3204 15.1935L25.3718 24.1943C25.3867 24.2207 25.3773 24.2541 25.3509 24.269L14.8087 30.1963C14.7823 30.2111 14.749 30.2019 14.7341 30.1757L9.62767 21.2298C9.62043 21.2171 9.61855 21.2021 9.62243 21.188C9.62631 21.1739 9.63564 21.162 9.64836 21.1548L20.2455 15.1726C20.2582 15.1654 20.2732 15.1636 20.2873 15.1675ZM9.75038 21.2233L14.8024 30.0739L25.2492 24.2002L20.2515 15.2952L9.75038 21.2233Z" fill="#C4C4C4"/>
<path fill-rule="evenodd" clip-rule="evenodd" d="M25.297 24.1733C25.3233 24.1586 25.3565 24.1677 25.3715 24.1937L32.8389 37.1461C32.8462 37.1588 32.8482 37.1739 32.8443 37.188C32.8405 37.2021 32.8311 37.2141 32.8184 37.2213L22.2212 43.2036C22.1949 43.2184 22.1615 43.2092 22.1465 43.1829L14.7341 30.1757C14.7268 30.163 14.7249 30.1479 14.7288 30.1339C14.7327 30.1198 14.7421 30.1078 14.7548 30.1007L25.297 24.1733ZM14.8568 30.1693L22.2149 43.0811L32.7161 37.153L25.3035 24.2956L14.8568 30.1693Z" fill="#C4C4C4"/>
<path fill-rule="evenodd" clip-rule="evenodd" d="M1.00744 6.02729C1.01728 6.01039 1.03535 6 1.05491 6H18.5154C18.5355 6 18.5539 6.01092 18.5636 6.02849L23.8347 15.633C23.849 15.6592 23.8399 15.692 23.814 15.7069L21.3432 17.1339C21.3305 17.1412 21.3153 17.1432 21.3011 17.1393C21.287 17.1354 21.275 17.126 21.2678 17.1131L20.2515 15.2952L9.70236 21.2504C9.67601 21.2652 9.64263 21.2561 9.62767 21.2298L1.00718 6.08202C0.997513 6.06503 0.997613 6.04418 1.00744 6.02729ZM1.14931 6.10977L9.69602 21.1279L20.2455 15.1726C20.2582 15.1654 20.2732 15.1636 20.2873 15.1675C20.3013 15.1714 20.3132 15.1808 20.3204 15.1935L21.3365 17.011L23.7126 15.6387L18.4829 6.10977H1.14931Z" fill="#C4C4C4"/>
<path fill-rule="evenodd" clip-rule="evenodd" d="M54.2601 20.7635C54.2601 20.7332 54.2847 20.7086 54.315 20.7086H65.022C65.0523 20.7086 65.0769 20.7332 65.0769 20.7635V34.155C65.0769 34.1793 65.0608 34.2008 65.0374 34.2076C65.014 34.2145 64.9889 34.2051 64.9757 34.1846L63.6311 32.0879L59.8877 34.2027C59.862 34.2173 59.8294 34.2089 59.8139 34.1837L58.5237 32.0881L54.7261 34.2029C54.7128 34.2103 54.697 34.2119 54.6825 34.2072C54.668 34.2025 54.6561 34.192 54.6496 34.1782L54.2653 33.3549C54.2619 33.3477 54.2601 33.3397 54.2601 33.3317V20.7635ZM54.3699 20.8184V33.3195L54.7242 34.0783L58.5162 31.9666C58.5419 31.9523 58.5743 31.9607 58.5897 31.9858L59.8797 34.0812L63.6223 31.9668C63.6476 31.9524 63.6798 31.9604 63.6955 31.9849L64.9671 33.9677V20.8184H54.3699Z" fill="#C4C4C4"/>
<path fill-rule="evenodd" clip-rule="evenodd" d="M64.9671 20.7635C64.9671 20.7332 64.9916 20.7086 65.022 20.7086H75.1798C75.2101 20.7086 75.2347 20.7332 75.2347 20.7635V34.1412C75.2347 34.1658 75.2184 34.1873 75.1948 34.194C75.1712 34.2007 75.1461 34.191 75.1331 34.1701L73.8434 32.0887L70.2107 34.1888C70.1851 34.2036 70.1522 34.1954 70.1366 34.1701L68.8467 32.0885L65.0492 34.2575C65.0322 34.2672 65.0113 34.2671 64.9944 34.2573C64.9775 34.2475 64.9671 34.2294 64.9671 34.2099V20.7635ZM65.0769 20.8184V34.1153L68.8382 31.9669C68.8639 31.9522 68.8966 31.9605 68.9122 31.9856L70.2019 34.0671L73.8346 31.967C73.8603 31.9522 73.8931 31.9604 73.9087 31.9856L75.1249 33.9484V20.8184H65.0769Z" fill="#C4C4C4"/>
<path fill-rule="evenodd" clip-rule="evenodd" d="M70.2931 6.05488C70.2931 6.02457 70.3176 6 70.348 6H80.9451C80.9754 6 81 6.02457 81 6.05488V33.7159C81 33.7347 80.9904 33.7521 80.9746 33.7622L80.3706 34.1464C80.3578 34.1545 80.3422 34.157 80.3275 34.1533C80.3129 34.1495 80.3004 34.1399 80.2931 34.1266L79.1663 32.0887L75.206 34.2307C75.1889 34.2399 75.1683 34.2395 75.1517 34.2296C75.1351 34.2197 75.1249 34.2017 75.1249 34.1824V20.8184H72.0501C72.0198 20.8184 71.9952 20.7938 71.9952 20.7635V17.3059H70.348C70.3176 17.3059 70.2931 17.2813 70.2931 17.251V6.05488ZM70.4029 6.10977V17.1961H72.0501C72.0804 17.1961 72.105 17.2207 72.105 17.251V20.7086H75.1798C75.2101 20.7086 75.2347 20.7332 75.2347 20.7635V34.0903L79.1619 31.9663C79.1884 31.9519 79.2215 31.9616 79.2361 31.988L80.3609 34.0224L80.8902 33.6858V6.10977H70.4029Z" fill="#C4C4C4"/>
<path fill-rule="evenodd" clip-rule="evenodd" d="M55.4681 6.05488C55.4681 6.02457 55.4927 6 55.523 6H70.348C70.3783 6 70.4029 6.02457 70.4029 6.05488V17.251C70.4029 17.2813 70.3783 17.3059 70.348 17.3059H55.523C55.4927 17.3059 55.4681 17.2813 55.4681 17.251V6.05488ZM55.5779 6.10977V17.1961H70.2931V6.10977H55.5779Z" fill="#C4C4C4"/>
<path fill-rule="evenodd" clip-rule="evenodd" d="M40.094 6.05488C40.094 6.02457 40.1186 6 40.1489 6H55.523C55.5533 6 55.5779 6.02457 55.5779 6.05488V17.251C55.5779 17.2813 55.5533 17.3059 55.523 17.3059H38.2821C38.2619 17.3059 38.2433 17.2948 38.2337 17.277L36.6963 14.4231C36.6823 14.397 36.6915 14.3645 36.7171 14.3496L40.094 12.3897V6.05488ZM40.2039 6.10977V12.4213C40.2039 12.4409 40.1934 12.4589 40.1765 12.4688L36.8182 14.4179L38.3149 17.1961H55.4681V6.10977H40.2039Z" fill="#C4C4C4"/>
<path fill-rule="evenodd" clip-rule="evenodd" d="M18.4682 6.02693C18.4781 6.01024 18.496 6 18.5154 6H32.2423C32.2625 6 32.281 6.01107 32.2906 6.02883L38.3304 17.225C38.3396 17.242 38.3391 17.2625 38.3292 17.2791C38.3193 17.2957 38.3014 17.3059 38.2821 17.3059H36.0456L27.438 22.2928C27.4252 22.3003 27.4099 22.3022 27.3957 22.2982C27.3815 22.2943 27.3694 22.2847 27.3623 22.2718L18.4673 6.0813C18.458 6.0643 18.4583 6.04363 18.4682 6.02693ZM18.6082 6.10977L27.4315 22.1697L36.0034 17.2035C36.0117 17.1987 36.0212 17.1961 36.0309 17.1961H38.1901L32.2095 6.10977H18.6082Z" fill="#C4C4C4"/>
<path fill-rule="evenodd" clip-rule="evenodd" d="M1.00744 6.02729C1.01728 6.01039 1.03535 6 1.05491 6H32.2423C32.2625 6 32.281 6.01107 32.2906 6.02883L36.7661 14.3212L40.094 12.3897V6.05488C40.094 6.02457 40.1186 6 40.1489 6H80.9314C80.9617 6 80.9863 6.02457 80.9863 6.05488V33.7159C80.9863 33.7332 80.9781 33.7496 80.9641 33.7599L80.3739 34.199C80.3612 34.2084 80.3452 34.2119 80.3297 34.2087C80.3143 34.2054 80.301 34.1957 80.2933 34.1819L79.112 32.0888L75.2612 34.2031C75.2358 34.217 75.2041 34.2089 75.1885 34.1846L73.8442 32.0884L70.2109 34.2024C70.1851 34.2174 70.1521 34.2091 70.1365 34.1837L68.8464 32.0883L65.1039 34.2027C65.0789 34.2169 65.0471 34.2093 65.0312 34.1854L63.6319 32.0874L59.8877 34.2027C59.862 34.2173 59.8294 34.2089 59.8139 34.1837L58.5237 32.0881L54.7261 34.2029C54.7126 34.2104 54.6965 34.2119 54.6819 34.207C54.6672 34.202 54.6553 34.1911 54.6491 34.177L54.2647 33.2988C54.2617 33.2919 54.2601 33.2844 54.2601 33.2768V20.8184H45.9281L42.0364 22.9255L63.4225 60.4168C63.4374 60.4431 63.4283 60.4765 63.402 60.4915L39.7918 73.9928C39.7792 74 39.7641 74.0019 39.75 73.998C39.736 73.9942 39.7241 73.985 39.7169 73.9723L1.00718 6.08202C0.997513 6.06503 0.997613 6.04418 1.00744 6.02729ZM1.14931 6.10977L39.7851 73.8702L63.2999 60.4235L41.9132 22.9311C41.9059 22.9183 41.904 22.9031 41.9081 22.8889C41.9121 22.8747 41.9217 22.8627 41.9347 22.8557L45.8881 20.7153C45.8961 20.7109 45.9051 20.7086 45.9142 20.7086H54.315C54.3454 20.7086 54.3699 20.7332 54.3699 20.7635V33.2654L54.7255 34.0776L58.5162 31.9666C58.5419 31.9523 58.5743 31.9607 58.5897 31.9858L59.8797 34.0812L63.6223 31.9668C63.6473 31.9526 63.679 31.9602 63.695 31.9841L65.0943 34.0821L68.8385 31.9668C68.8642 31.9522 68.8968 31.9606 68.9122 31.9858L70.2019 34.0806L73.8344 31.9671C73.8598 31.9523 73.8924 31.9602 73.9083 31.9849L75.2533 34.0822L79.1067 31.9664C79.1331 31.952 79.1662 31.9614 79.181 31.9876L80.3583 34.0738L80.8765 33.6883V6.10977H40.2039V12.4213C40.2039 12.4409 40.1934 12.4589 40.1765 12.4688L36.7723 14.4446C36.7594 14.452 36.7441 14.4539 36.7298 14.4499C36.7155 14.4459 36.7034 14.4362 36.6963 14.4231L32.2095 6.10977H1.14931Z" fill="#C4C4C4"/>
<path d="M42.4621 48.3965L47.4587 57.2876C47.4658 57.3003 47.4777 57.3096 47.4917 57.3135C47.5057 57.3175 47.5207 57.3157 47.5334 57.3085L58.1854 51.3263C58.1982 51.3191 58.2076 51.3071 58.2115 51.293C58.2154 51.2789 58.2135 51.2638 58.2062 51.2511L53.0998 42.3601C53.0847 42.3339 53.0513 42.3248 53.0251 42.3397L42.4829 48.3219C42.4566 48.3368 42.4473 48.3702 42.4621 48.3965ZM42.4621 48.3965C42.4693 48.4092 42.4812 48.4186 42.4953 48.4225C42.5094 48.4264 42.5244 48.4246 42.5371 48.4174L53.0793 42.4351C53.092 42.4279 53.1013 42.416 53.1051 42.4019C53.109 42.3879 53.1071 42.3729 53.0999 42.3602L48.2131 33.7985C48.2059 33.7858 48.1939 33.7766 48.1799 33.7727C48.1658 33.7689 48.1509 33.7708 48.1382 33.778L37.6509 39.7602C37.6247 39.7752 37.6154 39.8086 37.6303 39.8349L42.4621 48.3965ZM63.4225 60.4168L58.2063 51.2513C58.1913 51.2251 58.158 51.2158 58.1316 51.2306L47.4796 57.2128C47.4669 57.22 47.4575 57.2319 47.4536 57.246C47.4497 57.2601 47.4516 57.2751 47.4588 57.2878L48.5848 59.2709L47.4793 59.9023C47.4666 59.9096 47.4573 59.9216 47.4535 59.9357C47.4497 59.9498 47.4517 59.9649 47.459 59.9775L51.632 67.1672C51.6471 67.1933 51.6806 67.2023 51.7068 67.1873M63.4225 60.4168C63.4374 60.4431 63.4283 60.4765 63.402 60.4915M63.4225 60.4168L42.0364 22.9255L45.9281 20.8184H54.2601V33.2768C54.2601 33.2844 54.2617 33.2919 54.2647 33.2988L54.6491 34.177C54.6553 34.1911 54.6672 34.202 54.6818 34.207C54.6965 34.2119 54.7126 34.2104 54.7261 34.2029M63.402 60.4915L51.7068 67.1873M63.402 60.4915L39.7918 73.9928M51.7068 67.1873C51.7195 67.18 51.7287 67.168 51.7325 67.1539C51.7363 67.1398 51.7343 67.1247 51.727 67.1121L47.554 59.9224C47.5391 59.8968 47.5066 59.8876 47.4805 59.9016L46.099 60.6452L45.1377 59.0436C45.1224 59.0181 45.0896 59.0094 45.0637 59.024L34.6313 64.8965C34.6185 64.9036 34.6092 64.9156 34.6053 64.9296C34.6014 64.9437 34.6032 64.9587 34.6104 64.9714L39.7168 73.9722C39.724 73.9849 39.736 73.9942 39.7501 73.998M51.7068 67.1873L39.7918 73.9928M63.2999 60.4235L51.6996 67.0649L47.5818 59.9702L48.6868 59.339C48.7131 59.324 48.7223 59.2906 48.7073 59.2643L47.5815 57.2815L58.1378 51.353L63.2999 60.4235ZM63.2999 60.4235L39.7851 73.8702L1.14931 6.10977M63.2999 60.4235L41.9132 22.9311C41.9059 22.9183 41.904 22.9031 41.9081 22.8889C41.9121 22.8747 41.9217 22.8627 41.9347 22.8557L45.8881 20.7153C45.8961 20.7109 45.9051 20.7086 45.9142 20.7086H54.315M39.7918 73.9928C39.7792 74 39.7641 74.0019 39.7501 73.998M39.7501 73.998C39.736 73.9942 39.7241 73.985 39.7169 73.9723L1.00718 6.08202M37.6711 45.7633L32.8392 37.1467C32.8321 37.134 32.8202 37.1246 32.8062 37.1207C32.7921 37.1167 32.7771 37.1186 32.7644 37.1257L22.1672 43.108C22.1545 43.1152 22.1452 43.1271 22.1413 43.1412C22.1374 43.1552 22.1393 43.1703 22.1465 43.1829M37.6711 45.7633C37.6858 45.7895 37.6767 45.8227 37.6506 45.8377L27.1633 51.8748C27.1506 51.8821 27.1356 51.8841 27.1215 51.8802C27.1074 51.8764 27.0954 51.8671 27.0882 51.8545L22.1465 43.1829M37.6711 45.7633C37.6639 45.7505 37.6519 45.7411 37.6378 45.7372C37.6236 45.7334 37.6085 45.7353 37.5958 45.7426L27.1085 51.7797C27.0823 51.7948 27.0732 51.8283 27.0883 51.8546L34.6106 64.9716C34.6256 64.9978 34.6589 65.0069 34.6852 64.9921L45.1175 59.1197C45.144 59.1048 45.1533 59.0714 45.1385 59.045L37.6711 45.7633ZM22.1465 43.1829C22.1615 43.2092 22.1949 43.2184 22.2212 43.2036L32.8184 37.2213C32.8311 37.2141 32.8405 37.2021 32.8443 37.188C32.8482 37.1739 32.8462 37.1588 32.8389 37.1461L25.3715 24.1937C25.3565 24.1677 25.3233 24.1586 25.297 24.1733L14.7548 30.1007C14.7421 30.1078 14.7327 30.1198 14.7288 30.1339C14.7249 30.1479 14.7268 30.163 14.7341 30.1757M22.1465 43.1829L14.7341 30.1757M20.3204 15.1935C20.3132 15.1808 20.3013 15.1714 20.2873 15.1675C20.2732 15.1636 20.2582 15.1654 20.2455 15.1726M20.3204 15.1935L25.3718 24.1943C25.3867 24.2207 25.3773 24.2541 25.3509 24.269L14.8087 30.1963C14.7823 30.2111 14.749 30.2019 14.7341 30.1757M20.3204 15.1935L21.3365 17.011L23.7126 15.6387L18.4829 6.10977H1.14931M14.7341 30.1757L9.62767 21.2298M9.62767 21.2298C9.62043 21.2171 9.61855 21.2021 9.62243 21.188C9.62631 21.1739 9.63564 21.162 9.64836 21.1548L20.2455 15.1726M9.62767 21.2298C9.64263 21.2561 9.67601 21.2652 9.70236 21.2504L20.2515 15.2952M9.62767 21.2298L1.00718 6.08202M20.2455 15.1726L9.69602 21.1279L1.14931 6.10977M20.2515 15.2952L25.2492 24.2002L14.8024 30.0739L9.75038 21.2233L20.2515 15.2952ZM20.2515 15.2952L21.2678 17.1131C21.275 17.126 21.287 17.1354 21.3011 17.1393C21.3153 17.1432 21.3305 17.1412 21.3432 17.1339L23.814 15.7069C23.8399 15.692 23.849 15.6592 23.8347 15.633L18.5636 6.02849C18.5539 6.01092 18.5355 6 18.5154 6M1.05491 6C1.03535 6 1.01728 6.01039 1.00744 6.02729C0.997613 6.04418 0.997513 6.06503 1.00718 6.08202M1.05491 6H18.5154M1.05491 6H32.2423M18.5154 6C18.496 6 18.4781 6.01024 18.4682 6.02693C18.4583 6.04363 18.458 6.0643 18.4673 6.0813L27.3623 22.2718C27.3694 22.2847 27.3815 22.2943 27.3957 22.2982C27.4099 22.3022 27.4252 22.3003 27.438 22.2928L36.0456 17.3059H38.2821M18.5154 6H32.2423M1.14931 6.10977H32.2095M54.315 20.7086C54.2847 20.7086 54.2601 20.7332 54.2601 20.7635V33.3317C54.2601 33.3397 54.2619 33.3477 54.2653 33.3549L54.6496 34.1782C54.6561 34.192 54.668 34.2025 54.6825 34.2072C54.697 34.2119 54.7128 34.2103 54.7261 34.2029M54.315 20.7086H65.022M54.315 20.7086C54.3454 20.7086 54.3699 20.7332 54.3699 20.7635V33.2654L54.7255 34.0776L58.5162 31.9666M65.022 20.7086C65.0523 20.7086 65.0769 20.7332 65.0769 20.7635V34.155C65.0769 34.1793 65.0608 34.2008 65.0374 34.2076C65.014 34.2145 64.9889 34.2051 64.9757 34.1846L63.6311 32.0879L59.8877 34.2027M65.022 20.7086C64.9916 20.7086 64.9671 20.7332 64.9671 20.7635V34.2099C64.9671 34.2294 64.9775 34.2475 64.9944 34.2573C65.0113 34.2671 65.0322 34.2672 65.0492 34.2575L68.8467 32.0885L70.1366 34.1701C70.1522 34.1954 70.185 34.2036 70.2107 34.1888L73.8434 32.0887L75.1331 34.1701C75.1461 34.191 75.1713 34.2007 75.1948 34.194C75.2184 34.1873 75.2347 34.1658 75.2347 34.1412V20.7635M65.022 20.7086H75.1798M59.8877 34.2027C59.862 34.2173 59.8294 34.2089 59.8139 34.1837L58.5237 32.0881L54.7261 34.2029M59.8877 34.2027L63.6319 32.0874L65.0312 34.1854C65.0471 34.2093 65.0789 34.2169 65.1039 34.2027L68.8464 32.0883L70.1365 34.1837C70.1521 34.2091 70.1851 34.2174 70.2109 34.2024L73.8442 32.0884L75.1885 34.1846C75.2041 34.2089 75.2358 34.217 75.2612 34.2031L79.112 32.0888L80.2933 34.1819C80.301 34.1957 80.3143 34.2054 80.3297 34.2087C80.3452 34.2119 80.3612 34.2084 80.3739 34.199L80.9641 33.7599C80.9781 33.7496 80.9863 33.7333 80.9863 33.7159V6.05488C80.9863 6.02457 80.9617 6 80.9314 6H40.1489M58.5162 31.9666L54.7242 34.0783L54.3699 33.3195V20.8184H64.9671V33.9677L63.6955 31.9849C63.6798 31.9604 63.6476 31.9524 63.6223 31.9668M58.5162 31.9666C58.5419 31.9523 58.5743 31.9607 58.5897 31.9858L59.8797 34.0812L63.6223 31.9668M63.6223 31.9668C63.6473 31.9526 63.679 31.9602 63.695 31.9841L65.0943 34.0821L68.8385 31.9668C68.8642 31.9522 68.8968 31.9606 68.9122 31.9858L70.2019 34.0806L73.8344 31.9671C73.8598 31.9523 73.8924 31.9602 73.9083 31.9849L75.2533 34.0822L79.1067 31.9664C79.1331 31.952 79.1662 31.9614 79.181 31.9876L80.3583 34.0738L80.8765 33.6883V6.10977H40.2039M75.1798 20.7086C75.2101 20.7086 75.2347 20.7332 75.2347 20.7635M75.1798 20.7086H72.105V17.251C72.105 17.2207 72.0804 17.1961 72.0501 17.1961H70.4029V6.10977H80.8902V33.6858L80.3609 34.0224L79.2361 31.988C79.2215 31.9616 79.1884 31.9519 79.1619 31.9663L75.2347 34.0903V20.7635M75.1249 20.8184V33.9484L73.9087 31.9856C73.8931 31.9604 73.8603 31.9522 73.8346 31.967L70.2019 34.0671L68.9122 31.9856C68.8966 31.9605 68.8639 31.9522 68.8382 31.9669L65.0769 34.1153V20.8184H75.1249ZM75.1249 20.8184V34.1824C75.1249 34.2017 75.1351 34.2197 75.1517 34.2296C75.1683 34.2395 75.1889 34.2399 75.206 34.2307L79.1663 32.0887L80.2931 34.1266C80.3004 34.1399 80.3129 34.1495 80.3275 34.1533C80.3422 34.157 80.3578 34.1545 80.3706 34.1464L80.9746 33.7622C80.9904 33.7521 81 33.7347 81 33.7159V6.05488C81 6.02457 80.9754 6 80.9451 6H70.348M75.1249 20.8184H72.0501C72.0198 20.8184 71.9952 20.7938 71.9952 20.7635V17.3059H70.348M70.348 6C70.3177 6 70.2931 6.02457 70.2931 6.05488V17.251C70.2931 17.2813 70.3177 17.3059 70.348 17.3059M70.348 6H55.523M70.348 6C70.3783 6 70.4029 6.02457 70.4029 6.05488V17.251C70.4029 17.2813 70.3783 17.3059 70.348 17.3059M70.348 17.3059H55.523M55.523 6C55.4927 6 55.4681 6.02457 55.4681 6.05488V17.251C55.4681 17.2813 55.4927 17.3059 55.523 17.3059M55.523 6H40.1489M55.523 6C55.5533 6 55.5779 6.02457 55.5779 6.05488V17.251C55.5779 17.2813 55.5533 17.3059 55.523 17.3059M55.523 17.3059H38.2821M40.1489 6C40.1186 6 40.094 6.02457 40.094 6.05488V12.3897M38.2821 17.3059C38.2619 17.3059 38.2433 17.2948 38.2338 17.277L36.6963 14.4231M38.2821 17.3059C38.3014 17.3059 38.3193 17.2957 38.3292 17.2791C38.3391 17.2625 38.3396 17.242 38.3304 17.225L32.2906 6.02883M36.6963 14.4231C36.6823 14.397 36.6915 14.3645 36.7171 14.3496L40.094 12.3897M36.6963 14.4231C36.7034 14.4362 36.7155 14.4459 36.7298 14.4499C36.7441 14.4539 36.7594 14.452 36.7723 14.4446L40.1765 12.4688M36.6963 14.4231L32.2095 6.10977M40.094 12.3897L36.7661 14.3212L32.2906 6.02883M40.2039 6.10977V12.4213C40.2039 12.4409 40.1934 12.4589 40.1765 12.4688M40.2039 6.10977H55.4681V17.1961H38.3149L36.8182 14.4179L40.1765 12.4688M32.2423 6C32.2625 6 32.281 6.01107 32.2906 6.02883M32.2095 6.10977L38.1901 17.1961H36.0309C36.0212 17.1961 36.0117 17.1987 36.0034 17.2035L27.4315 22.1697L18.6082 6.10977H32.2095ZM47.5275 57.186L42.5846 48.3904L53.0318 42.4621L58.0833 51.2577L47.5275 57.186ZM42.5307 48.2948L37.7528 39.8285L48.1449 33.9005L52.9772 42.3668L42.5307 48.2948ZM39.7852 73.8702L34.7331 64.9651L45.071 59.1459L46.0318 60.7466C46.0469 60.7717 46.0791 60.7805 46.105 60.7666L47.4857 60.0235L51.6042 67.1194L39.7852 73.8702ZM27.1563 51.7522L22.2692 43.1765L32.7704 37.2484L37.5488 45.7697L27.1563 51.7522ZM34.6787 64.8698L27.2108 51.8475L37.6025 45.8654L45.0159 59.0509L34.6787 64.8698ZM22.2149 43.0811L14.8568 30.1693L25.3035 24.2956L32.7161 37.153L22.2149 43.0811ZM55.5779 17.1961V6.10977H70.2931V17.1961H55.5779Z" stroke="#C4C4C4" stroke-linejoin="round"/>
</svg>
