<svg width="24" height="24" viewBox="0 0 24 24" fill="none" xmlns="http://www.w3.org/2000/svg">
<path d="M10.9167 13.8269C11.4977 14.6444 11.7505 15.6503 11.6249 16.6453C11.4993 17.6403 11.0044 18.5518 10.2384 19.1992C9.47245 19.8466 8.49122 20.1826 7.48919 20.1406C6.48716 20.0986 5.53746 19.6817 4.82829 18.9726C4.11913 18.2634 3.70225 17.3137 3.66028 16.3117C3.61831 15.3097 3.9543 14.3284 4.60168 13.5624C5.24905 12.7964 6.16057 12.3016 7.15558 12.176C8.15059 12.0504 9.15648 12.3031 9.97392 12.8842L18.5012 4.3569L19.444 5.29967L18.5012 6.24243L20.3867 8.12795L19.444 9.07071L17.5584 7.18519L16.6157 8.12795L18.5012 10.0135L17.5584 10.9562L15.6729 9.07071L10.9167 13.8269ZM5.77392 14.2559C5.401 14.6288 5.14703 15.104 5.04415 15.6212C4.94126 16.1385 4.99406 16.6746 5.19589 17.1619C5.39771 17.6491 5.73949 18.0656 6.178 18.3586C6.6165 18.6516 7.13205 18.808 7.65944 18.808C8.18683 18.808 8.70238 18.6516 9.14089 18.3586C9.5794 18.0656 9.92117 17.6491 10.123 17.1619C10.3248 16.6746 10.3776 16.1385 10.2747 15.6212C10.1718 15.104 9.91789 14.6288 9.54497 14.2559C9.04489 13.7558 8.36665 13.4749 7.65944 13.4749C6.95223 13.4749 6.27399 13.7558 5.77392 14.2559Z" fill="#353B40"/>
</svg>
