<svg width="164" height="40" viewBox="0 0 164 40" fill="none" xmlns="http://www.w3.org/2000/svg">
<g clip-path="url(#clip0_647_3188)">
<path d="M0 40L10.9208 0H164L153.079 40H0Z" fill="white"/>
<path d="M48.4385 29.1513H46.5059V10.8489H48.4385C48.4385 16.9497 48.4385 23.0505 48.4385 29.1513Z" fill="#353B40"/>
<path d="M51.272 10.8489H53.2046V29.1513H51.272C51.272 23.0505 51.272 16.9497 51.272 10.8489Z" fill="#353B40"/>
<path d="M68.6033 26.3296C68.6033 26.7164 68.5532 27.0811 68.4526 27.4238C68.3527 27.7668 68.1977 28.066 67.9884 28.3205C67.7795 28.5755 67.5033 28.7778 67.1605 28.927C66.8177 29.0765 66.4037 29.1513 65.9186 29.1513H62.0796V10.8489H65.9186C66.4037 10.8489 66.8177 10.9237 67.1605 11.0733C67.5033 11.2229 67.7795 11.4252 67.9884 11.6797C68.1977 11.9351 68.3527 12.2335 68.4526 12.5765C68.5532 12.9191 68.6033 13.2842 68.6033 13.6707V26.3296ZM65.9186 27.121C66.1864 27.121 66.3785 27.0417 66.4955 26.8833C66.613 26.7253 66.6712 26.5407 66.6712 26.3296V13.6707C66.6712 13.46 66.613 13.2754 66.4955 13.117C66.3785 12.9589 66.1864 12.8797 65.9186 12.8797H64.0117V27.121H65.9186Z" fill="#353B40"/>
<path d="M80.8606 10.6909C81.3458 10.6909 81.7598 10.7657 82.1026 10.9153C82.4454 11.0645 82.7212 11.2668 82.9305 11.5217C83.1394 11.7767 83.2944 12.0755 83.3946 12.4185C83.4952 12.7611 83.5453 13.1263 83.5453 13.5127V26.488C83.5453 26.8745 83.4952 27.2396 83.3946 27.5823C83.2944 27.9253 83.1394 28.2241 82.9305 28.479C82.7212 28.7336 82.4454 28.9362 82.1026 29.0854C81.7598 29.235 81.3458 29.3098 80.8606 29.3098H79.38C78.8949 29.3098 78.4809 29.235 78.1381 29.0854C77.7952 28.9362 77.5194 28.7336 77.3102 28.479C77.1013 28.2241 76.9463 27.9253 76.846 27.5823C76.7454 27.2396 76.6953 26.8745 76.6953 26.488V13.5127C76.6953 13.1263 76.7454 12.7611 76.846 12.4185C76.9463 12.0755 77.1013 11.7767 77.3102 11.5217C77.5194 11.2668 77.7952 11.0645 78.1381 10.9153C78.4809 10.7657 78.8949 10.6909 79.38 10.6909H80.8606ZM80.8606 27.279C81.1281 27.279 81.3205 27.1998 81.4376 27.0418C81.5547 26.8833 81.6132 26.6988 81.6132 26.488V13.5127C81.6132 13.3016 81.5547 13.117 81.4376 12.959C81.3205 12.8005 81.1281 12.7213 80.8606 12.7213H79.38C79.0957 12.7213 78.8994 12.8005 78.7908 12.959C78.6817 13.117 78.6274 13.3016 78.6274 13.5127V26.488C78.6274 26.6988 78.6817 26.8833 78.7908 27.0418C78.8994 27.1998 79.0957 27.279 79.38 27.279H80.8606Z" fill="#353B40"/>
<path d="M97.045 10.8489H98.9771L96.9949 29.1513H92.8548L90.8477 10.8489H92.8047L94.5861 27.121H95.2636L97.045 10.8489Z" fill="#353B40"/>
<path d="M107.969 12.7213C107.685 12.7213 107.488 12.8005 107.379 12.959C107.271 13.117 107.216 13.3016 107.216 13.5127V15.86C107.216 16.0884 107.271 16.2774 107.379 16.427C107.488 16.5762 107.685 16.651 107.969 16.651H109.199C109.684 16.651 110.098 16.7258 110.441 16.8754C110.783 17.0246 111.06 17.2268 111.268 17.4818C111.478 17.7367 111.632 18.0355 111.733 18.3786C111.833 18.7212 111.883 19.0859 111.883 19.4728V26.488C111.883 26.8745 111.833 27.2396 111.733 27.5823C111.632 27.9253 111.478 28.2241 111.268 28.479C111.06 28.7336 110.783 28.9362 110.441 29.0854C110.098 29.235 109.684 29.3098 109.199 29.3098H107.969C107.484 29.3098 107.07 29.235 106.727 29.0854C106.384 28.9362 106.108 28.7336 105.899 28.479C105.69 28.2241 105.535 27.9253 105.435 27.5823C105.334 27.2396 105.284 26.8745 105.284 26.488V21.029H107.216V26.488C107.216 26.6988 107.271 26.8833 107.379 27.0418C107.488 27.1998 107.685 27.279 107.969 27.279H109.199C109.466 27.279 109.658 27.1998 109.776 27.0418C109.893 26.8833 109.951 26.6988 109.951 26.488V19.4728C109.951 19.262 109.893 19.0771 109.776 18.919C109.658 18.7606 109.466 18.6818 109.199 18.6818H107.969C107.484 18.6818 107.07 18.607 106.727 18.4578C106.384 18.3082 106.108 18.1059 105.899 17.851C105.69 17.596 105.535 17.2972 105.435 16.9546C105.334 16.6116 105.284 16.2468 105.284 15.86V13.5127C105.284 13.1263 105.334 12.7611 105.435 12.4185C105.535 12.0755 105.69 11.7767 105.899 11.5217C106.108 11.2668 106.384 11.0645 106.727 10.9153C107.07 10.7657 107.484 10.6909 107.969 10.6909H109.199C109.684 10.6909 110.098 10.7657 110.441 10.9153C110.783 11.0645 111.06 11.2668 111.268 11.5217C111.478 11.7767 111.632 12.0755 111.733 12.4185C111.833 12.7611 111.883 13.1263 111.883 13.5127V14.8048H109.951V13.5127C109.951 13.3016 109.893 13.117 109.776 12.959C109.658 12.8005 109.466 12.7213 109.199 12.7213H107.969Z" fill="#353B40"/>
<path d="M119.474 10.8489H121.405V16.8359H123.061L124.968 10.8489H127.026L124.843 17.7061L127.177 29.1513H125.194L123.036 18.5498H121.405V29.1513H119.474V10.8489Z" fill="#353B40"/>
<path d="M141.465 20.5279C141.465 21.2662 141.281 21.9036 140.913 22.4397C140.545 22.9761 139.934 23.2789 139.081 23.3493V29.1513H137.149V23.3493C136.296 23.2789 135.685 22.9761 135.318 22.4397C134.95 21.9036 134.766 21.2662 134.766 20.5279V10.8489H136.697V20.5279C136.697 20.7386 136.756 20.9232 136.873 21.0817C136.99 21.2397 137.183 21.3189 137.45 21.3189H138.78C139.048 21.3189 139.24 21.2397 139.357 21.0817C139.474 20.9232 139.533 20.7386 139.533 20.5279V10.8489H141.465V20.5279Z" fill="#353B40"/>
<path d="M53.2042 29.1513L48.437 10.8489H46.5049L51.2724 29.1513H53.2042Z" fill="#353B40"/>
<path d="M24.5308 27.121H28.3946V29.1513H22.5986V10.8489H24.5308V27.121Z" fill="#353B40"/>
<path d="M34.1392 29.1513L39.1382 10.8489H41.07L36.0709 29.1513H34.1392Z" fill="#353B40"/>
</g>
<defs>
<clipPath id="clip0_647_3188">
<rect width="164" height="40" fill="white"/>
</clipPath>
</defs>
</svg>
