<svg width="201" height="390" viewBox="0 0 201 390" fill="none" xmlns="http://www.w3.org/2000/svg">
<g clip-path="url(#clip0_501_1071)">
<path d="M87.915 110.874L104.427 53.4725H110.811L94.2995 110.874H87.915Z" fill="#FECD0A"/>
<path d="M143.344 110.874H136.984V53.4725H143.344V110.874Z" fill="#353B40"/>
<path d="M152.713 53.4725H158.999V110.874H152.713V53.4725Z" fill="#353B40"/>
<path d="M45.9147 104.504H58.6836V110.874H39.5303V53.4725H45.9147V104.504Z" fill="#353B40"/>
<path d="M52.2248 198.954C52.5778 198.987 52.9338 198.938 53.2648 198.811C53.5958 198.684 53.8928 198.482 54.1328 198.222C54.5239 197.729 54.7314 197.117 54.7198 196.489V156.781C54.7314 156.153 54.5239 155.54 54.1328 155.048C53.8977 154.78 53.602 154.572 53.2703 154.44C52.9385 154.309 52.5801 154.258 52.2248 154.292H45.9137V198.954H52.2248ZM61.1043 196.513C61.1104 197.672 60.9371 198.824 60.5906 199.93C60.289 200.969 59.7723 201.933 59.074 202.761C58.3081 203.584 57.3737 204.233 56.3343 204.665C55.022 205.157 53.6261 205.389 52.2248 205.348H39.5537V147.922H52.2248C53.6032 147.898 54.9734 148.138 56.2609 148.63C57.3086 149.046 58.2461 149.697 59.0006 150.533C59.699 151.351 60.2159 152.308 60.5172 153.34C60.9074 154.447 61.122 155.608 61.1532 156.781L61.1043 196.513Z" fill="#353B40"/>
<path d="M101.589 199.466C101.944 199.5 102.303 199.449 102.635 199.318C102.966 199.186 103.262 198.978 103.497 198.71C103.888 198.217 104.096 197.605 104.084 196.977V156.195C104.091 155.56 103.885 154.942 103.497 154.438C103.257 154.177 102.96 153.976 102.629 153.849C102.298 153.722 101.942 153.673 101.589 153.706H96.6968C96.3393 153.663 95.9768 153.707 95.6402 153.835C95.3036 153.962 95.0031 154.169 94.7643 154.438C94.4006 154.951 94.212 155.567 94.2262 156.195V196.977C94.2083 197.598 94.3976 198.207 94.7643 198.71C94.9978 198.986 95.2969 199.2 95.6343 199.333C95.9718 199.465 96.337 199.511 96.6968 199.466H101.589ZM101.589 147.434C102.992 147.4 104.388 147.64 105.699 148.141C106.751 148.549 107.69 149.201 108.438 150.045C109.17 150.86 109.728 151.815 110.077 152.852C110.404 153.97 110.569 155.128 110.566 156.293V196.977C110.569 198.141 110.404 199.3 110.077 200.418C109.757 201.447 109.233 202.401 108.536 203.225C107.788 204.068 106.849 204.721 105.796 205.128C104.486 205.629 103.09 205.87 101.687 205.836H96.7946C95.3919 205.865 93.9967 205.625 92.6851 205.128C91.6396 204.721 90.7082 204.068 89.9699 203.225C89.2639 202.408 88.7388 201.451 88.4288 200.418C88.0884 199.303 87.9234 198.142 87.9396 196.977V156.195C87.9234 155.03 88.0884 153.869 88.4288 152.754C88.7388 151.721 89.2639 150.764 89.9699 149.947C90.7082 149.104 91.6396 148.451 92.6851 148.044C93.9967 147.547 95.3919 147.307 96.7946 147.336L101.589 147.434Z" fill="#353B40"/>
<path d="M155.061 147.922H161.446L154.89 205.324H141.216L134.587 147.922H141.045L146.94 198.954H149.19L155.061 147.922Z" fill="#353B40"/>
<path d="M48.4089 248.253C48.0553 248.2 47.694 248.234 47.357 248.353C47.0199 248.472 46.7175 248.673 46.4764 248.936C46.1027 249.436 45.9049 250.045 45.9138 250.669V257.991C45.8936 258.623 46.0923 259.244 46.4764 259.748C46.7176 260.012 47.0193 260.215 47.3557 260.338C47.6922 260.461 48.0535 260.501 48.4089 260.456H52.4695C53.8725 260.422 55.2685 260.662 56.579 261.163C57.6315 261.57 58.5709 262.223 59.3187 263.067C60.0171 263.885 60.534 264.842 60.8353 265.874C61.184 266.987 61.3572 268.148 61.349 269.315V291.28C61.3572 292.446 61.184 293.607 60.8353 294.721C60.5426 295.756 60.0248 296.714 59.3187 297.527C58.5709 298.371 57.6315 299.024 56.579 299.431C55.2685 299.932 53.8725 300.173 52.4695 300.139H48.4089C47.0062 300.168 45.611 299.928 44.2993 299.431C43.2757 299.087 42.3462 298.511 41.5841 297.747C40.8645 296.94 40.3376 295.98 40.043 294.94C39.7027 293.826 39.5377 292.665 39.5538 291.499V274.415H45.9138V291.499C45.9085 292.13 46.1056 292.746 46.4764 293.257C46.7152 293.525 47.0157 293.732 47.3523 293.86C47.6889 293.987 48.0514 294.032 48.4089 293.989H52.4695C52.8226 294.022 53.1785 293.973 53.5095 293.846C53.8405 293.719 54.1376 293.517 54.3775 293.257C54.7651 292.753 54.9719 292.134 54.9646 291.499V269.534C54.9761 268.906 54.7686 268.294 54.3775 267.802C54.1424 267.534 53.8468 267.325 53.515 267.194C53.1832 267.062 52.8249 267.011 52.4695 267.045H48.4089C47.0053 267.086 45.6078 266.846 44.2993 266.337C43.2539 265.93 42.3224 265.277 41.5841 264.434C40.8645 263.626 40.3376 262.667 40.043 261.627C39.7044 260.52 39.5394 259.367 39.5538 258.21V250.889C39.5377 249.723 39.7027 248.562 40.043 247.447C40.343 246.41 40.8693 245.451 41.5841 244.641C42.3224 243.797 43.2539 243.144 44.2993 242.737C45.611 242.24 47.0062 242 48.4089 242.029H52.4695C53.8725 241.996 55.2685 242.236 56.579 242.737C57.6315 243.144 58.5709 243.797 59.3187 244.641C60.0171 245.459 60.534 246.416 60.8353 247.447C61.184 248.561 61.3572 249.722 61.349 250.889V254.94H54.9646V250.889C54.9761 250.261 54.7686 249.648 54.3775 249.156C54.1424 248.888 53.8468 248.679 53.515 248.548C53.1832 248.416 52.8249 248.365 52.4695 248.399L48.4089 248.253Z" fill="#353B40"/>
<path d="M86.4229 242.396H92.8073V261.163H98.2867L104.573 242.396H111.374L104.157 263.897L111.863 299.797H105.332L98.1888 266.533H92.8073V299.797H86.4229V242.396Z" fill="#353B40"/>
<path d="M159 272.732C159.053 274.878 158.409 276.984 157.165 278.735C156.435 279.631 155.514 280.352 154.468 280.846C153.423 281.34 152.28 281.595 151.123 281.591V299.797H144.836V281.591C143.675 281.598 142.528 281.346 141.478 280.851C140.428 280.357 139.502 279.634 138.77 278.735C137.544 276.976 136.91 274.874 136.96 272.732V242.396H143.344V272.732C143.335 273.363 143.533 273.98 143.907 274.489C144.147 274.749 144.444 274.951 144.775 275.078C145.106 275.205 145.462 275.254 145.815 275.221H150.218C150.571 275.254 150.927 275.205 151.258 275.078C151.589 274.951 151.886 274.749 152.126 274.489C152.517 273.987 152.724 273.367 152.713 272.732V242.396H159V272.732Z" fill="#353B40"/>
<path d="M159.098 110.874L143.344 53.4725H136.96L152.713 110.874H159.098Z" fill="#353B40"/>
<path d="M2.59292 0H198.407H201V2.58698V347.608L195.814 346.168V5.17397H5.18583V386.388L0 390.024V2.58698V0H2.59292Z" fill="#353B40"/>
</g>
<defs>
<clipPath id="clip0_501_1071">
<rect width="201" height="390" fill="white"/>
</clipPath>
</defs>
</svg>
