<svg width="1400" height="206" viewBox="0 0 1400 206" fill="none" xmlns="http://www.w3.org/2000/svg">
<path d="M135.094 205.863L193.971 0.772507H217.555L158.678 205.863H135.094Z" fill="#FECD0A"/>
<path d="M304.322 205.863H281.569V0.772507H304.322C304.322 69.135 304.322 137.501 304.322 205.863Z" fill="#FECD0A"/>
<path d="M337.718 0.772507H360.472V205.863H337.718C337.718 137.501 337.718 69.135 337.718 0.772507Z" fill="#FECD0A"/>
<path d="M22.7531 183.109H68.2642V205.863H-0.000732422V0.772507H22.7531V183.109Z" fill="#FECD0A"/>
<path d="M541.841 174.244C541.841 178.575 541.251 182.666 540.067 186.505C538.887 190.348 537.066 193.699 534.602 196.554C532.141 199.409 528.887 201.678 524.849 203.35C520.811 205.025 515.935 205.863 510.221 205.863H465.007V0.772507H510.221C515.935 0.772507 520.811 1.61069 524.849 3.28574C528.887 4.96146 532.141 7.22649 534.602 10.0815C537.066 12.9398 538.887 16.2873 540.067 20.1305C541.251 23.9697 541.841 28.0604 541.841 32.392V174.244ZM510.221 183.109C513.373 183.109 515.638 182.223 517.017 180.449C518.399 178.676 519.087 176.607 519.087 174.244V32.392C519.087 30.0288 518.399 27.9589 517.017 26.1863C515.638 24.413 513.373 23.5264 510.221 23.5264H487.761V183.109H510.221Z" fill="#FECD0A"/>
<path d="M686.202 -1.00009C691.915 -1.00009 696.792 -0.162567 700.83 1.51248C704.869 3.1882 708.118 5.45323 710.582 8.30824C713.043 11.1672 714.864 14.514 716.048 18.3572C717.231 22.1964 717.821 26.2872 717.821 30.6188V176.017C717.821 180.349 717.231 184.439 716.048 188.278C714.864 192.121 713.043 195.472 710.582 198.327C708.118 201.182 704.869 203.451 700.83 205.123C696.792 206.798 691.915 207.636 686.202 207.636H668.764C663.05 207.636 658.174 206.798 654.136 205.123C650.098 203.451 646.848 201.182 644.384 198.327C641.923 195.472 640.101 192.121 638.918 188.278C637.734 184.439 637.145 180.349 637.145 176.017V30.6188C637.145 26.2872 637.734 22.1964 638.918 18.3572C640.101 14.514 641.923 11.1672 644.384 8.30824C646.848 5.45323 650.098 3.1882 654.136 1.51248C658.174 -0.162567 663.05 -1.00009 668.764 -1.00009H686.202ZM686.202 184.882C689.354 184.882 691.619 183.996 692.998 182.223C694.376 180.449 695.067 178.38 695.067 176.017V30.6188C695.067 28.2555 694.376 26.1863 692.998 24.413C691.619 22.6397 689.354 21.7531 686.202 21.7531H668.764C665.417 21.7531 663.102 22.6397 661.822 24.413C660.541 26.1863 659.898 28.2555 659.898 30.6188V176.017C659.898 178.38 660.541 180.449 661.822 182.223C663.102 183.996 665.417 184.882 668.764 184.882H686.202Z" fill="#FECD0A"/>
<path d="M876.817 0.772507H899.571L876.224 205.863H827.464L803.824 0.772507H826.874L847.854 183.109H855.833L876.817 0.772507Z" fill="#FECD0A"/>
<path d="M1005.48 21.7531C1002.13 21.7531 999.817 22.6397 998.536 24.413C997.254 26.1863 996.613 28.2562 996.613 30.6188V56.9225C996.613 59.4842 997.254 61.5992 998.536 63.2749C999.817 64.95 1002.13 65.7875 1005.48 65.7875H1019.96C1025.67 65.7875 1030.55 66.6257 1034.59 68.3008C1038.63 69.9725 1041.88 72.2382 1044.34 75.0965C1046.8 77.9515 1048.63 81.3023 1049.81 85.1455C1050.99 88.9847 1051.58 93.0721 1051.58 97.4071V176.017C1051.58 180.349 1050.99 184.439 1049.81 188.278C1048.63 192.122 1046.8 195.472 1044.34 198.327C1041.88 201.182 1038.63 203.451 1034.59 205.123C1030.55 206.798 1025.67 207.636 1019.96 207.636H1005.48C999.764 207.636 994.888 206.798 990.849 205.123C986.811 203.451 983.562 201.182 981.098 198.327C978.637 195.472 976.815 192.122 975.632 188.278C974.449 184.439 973.859 180.349 973.859 176.017V114.845H996.613V176.017C996.613 178.38 997.254 180.449 998.536 182.223C999.817 183.996 1002.13 184.883 1005.48 184.883H1019.96C1023.11 184.883 1025.38 183.996 1026.75 182.223C1028.14 180.449 1028.82 178.38 1028.82 176.017V97.4071C1028.82 95.0438 1028.14 92.9739 1026.75 91.2013C1025.38 89.428 1023.11 88.5414 1019.96 88.5414H1005.48C999.764 88.5414 994.888 87.7038 990.849 86.0321C986.811 84.3564 983.562 82.0914 981.098 79.2324C978.637 76.3774 976.815 73.0266 975.632 69.1874C974.449 65.3442 973.859 61.2575 973.859 56.9225V30.6188C973.859 26.2872 974.449 22.1964 975.632 18.3572C976.815 14.5147 978.637 11.1672 981.098 8.30824C983.562 5.45323 986.811 3.1882 990.849 1.51248C994.888 -0.162567 999.764 -1.00009 1005.48 -1.00009H1019.96C1025.67 -1.00009 1030.55 -0.162567 1034.59 1.51248C1038.63 3.1882 1041.88 5.45323 1044.34 8.30824C1046.8 11.1672 1048.63 14.5147 1049.81 18.3572C1050.99 22.1964 1051.58 26.2872 1051.58 30.6188V45.1003H1028.82V30.6188C1028.82 28.2562 1028.14 26.1863 1026.75 24.413C1025.38 22.6397 1023.11 21.7531 1019.96 21.7531H1005.48Z" fill="#FECD0A"/>
<path d="M1140.97 0.772507H1163.73V67.8574H1183.23L1205.69 0.772507H1229.93L1204.22 77.6098L1231.7 205.863H1208.35L1182.94 87.0648H1163.73V205.863H1140.97V0.772507Z" fill="#FECD0A"/>
<path d="M1400 109.229C1400 117.504 1397.83 124.646 1393.5 130.653C1389.17 136.663 1381.97 140.059 1371.93 140.848V205.863H1349.17V140.848C1339.12 140.059 1331.93 136.663 1327.6 130.653C1323.27 124.646 1321.1 117.504 1321.1 109.229V0.772507H1343.85V109.229C1343.85 111.592 1344.54 113.662 1345.92 115.434C1347.3 117.208 1349.56 118.094 1352.72 118.094H1368.38C1371.53 118.094 1373.8 117.208 1375.18 115.434C1376.56 113.662 1377.25 111.592 1377.25 109.229V0.772507H1400V109.229Z" fill="#FECD0A"/>
<path d="M360.47 205.863L304.321 0.772507H281.567L337.716 205.863H360.47Z" fill="#FECD0A"/>
</svg>
