<svg width="132" height="80" viewBox="0 0 132 80" fill="none" xmlns="http://www.w3.org/2000/svg">
<g clip-path="url(#clip0_693_404)">
<path d="M53.2741 77.4772C54.5039 77.4723 55.6074 77.3358 56.5786 77.0571C57.5497 76.7746 58.4281 76.379 59.2239 75.857C60.0193 75.3396 60.766 74.7196 61.4735 73.9924L59.951 72.382C59.3019 73.0066 58.648 73.5432 57.9891 73.9826C57.3253 74.4216 56.6174 74.7588 55.8609 74.9881C55.1043 75.2223 54.2652 75.3396 53.3329 75.3396C52.2007 75.3347 51.1511 75.1152 50.1898 74.6852C49.2281 74.256 48.3889 73.6556 47.6716 72.8896C46.9588 72.1184 46.4025 71.2253 46.0024 70.2002C45.7931 69.6575 45.6373 69.0914 45.5359 68.502L43.3541 69.7563C43.3982 69.9272 43.4461 70.0962 43.4985 70.264C43.8255 71.323 44.2988 72.2941 44.909 73.1774C45.5242 74.0558 46.2513 74.8172 47.1002 75.4565C47.9496 76.101 48.8917 76.5939 49.936 76.9454C50.9754 77.2966 52.0883 77.4723 53.2741 77.4772ZM59.5592 12.9786L81.8766 0.134263V4.96207L62.1818 16.2967L59.5592 12.9786ZM49.3171 18.873L56.0476 14.9993L58.668 18.319L49.3171 23.7004V18.873ZM49.3171 27.9957L81.8766 9.25622V14.0844L67.1314 22.5705L69.627 25.7279L81.8766 18.678V23.5058L72.25 29.046L82.6825 42.2445H77.5609L68.7384 31.0671L49.3171 42.2445V37.4171L66.1184 27.7475L63.6248 24.5886L49.3171 32.8231V27.9957ZM6.0539 66.3507L14.5539 77.1261H17.453L8.03729 65.2095L6.0539 66.3507ZM2.31339 56.4809H0V64.528L2.31339 63.1963V56.4809ZM0 65.9608L16.471 56.4809V58.9233L0 68.4028L0 65.9608ZM39.2493 77.1257H41.7384L32.3969 56.4809H30.2303L20.8888 77.1257H23.2607C25.9437 71.1457 28.6036 65.1563 31.2844 59.1752C32.865 62.7241 34.4403 66.2749 36.0145 69.8261H28.176L27.2682 71.9053H36.9359L39.2493 77.1257ZM105.599 77.1257H108.088L98.7469 56.4809H96.5799L87.2384 77.1257H89.6106C92.2933 71.1457 94.9533 65.1563 97.634 59.1752C99.2146 62.7241 100.79 66.2749 102.364 69.8261H94.5256L93.6178 71.9053H103.286L105.599 77.1257ZM110.711 75.0175V79.2339H112.894L113.083 77.1257H114.681H127.913H129.716V79.2339H131.778L132 75.0175H129.598H127.139H121.455H115.462L121.327 59.1752L126.365 72.9093H128.796L122.539 56.4809H120.175L113.113 75.0175H110.711ZM72.2662 66.3507L80.7659 77.1261H83.665L74.2492 65.2095L72.2662 66.3507ZM68.5257 56.4809H66.212V64.528L68.5257 63.1963V56.4809ZM66.212 65.9608L82.6829 56.4809V58.9233L66.212 68.4028V65.9608ZM56.9403 9.65825L49.3171 0V6.47366L53.4306 11.6779L56.9403 9.65825ZM66.212 69.8352V77.1261H68.5257V68.5035L66.212 69.8352ZM0 69.8352V77.1261H2.31339V68.5035L0 69.8352ZM45.4348 66.0196C45.5102 65.142 45.698 64.3149 45.9975 63.5384C46.3927 62.5182 46.949 61.6202 47.6618 60.8539C48.3791 60.0875 49.2137 59.492 50.18 59.0628C51.1417 58.6382 52.1909 58.4187 53.3329 58.4138C54.2554 58.4187 55.0949 58.5405 55.856 58.7751C56.6129 59.0138 57.3155 59.3457 57.9548 59.7658C58.5944 60.1856 59.2043 60.6732 59.7753 61.225L61.2978 59.5852C60.7905 59.0968 60.2637 58.6529 59.7164 58.2524C59.1703 57.8477 58.5842 57.5011 57.9548 57.2031C57.3302 56.9109 56.6371 56.6812 55.8805 56.5201C55.1292 56.3591 54.2897 56.2761 53.3619 56.2761C52.1517 56.2807 51.0195 56.4613 49.9654 56.823C48.9158 57.179 47.9594 57.6863 47.1055 58.3357C46.2513 58.9897 45.5193 59.7556 44.909 60.6393C44.2943 61.5229 43.8255 62.4941 43.4936 63.5482C43.1666 64.6023 43.0007 65.71 42.9958 66.8769C42.9965 67.0571 43.0011 67.2363 43.009 67.4143L45.4348 66.0196Z" fill="white"/>
</g>
<defs>
<clipPath id="clip0_693_404">
<rect width="132" height="80" fill="white"/>
</clipPath>
</defs>
</svg>
