<svg width="28" height="28" viewBox="0 0 28 28" fill="none" xmlns="http://www.w3.org/2000/svg">
<path fill-rule="evenodd" clip-rule="evenodd" d="M23.3327 14C23.3327 8.84531 19.154 4.66663 13.9993 4.66663C8.8447 4.66663 4.66602 8.84531 4.66602 14C4.66602 19.1546 8.8447 23.3333 13.9993 23.3333C19.154 23.3333 23.3327 19.1546 23.3327 14ZM21.7979 14C21.7979 18.307 18.3064 21.7985 13.9993 21.7985C9.69234 21.7985 6.20082 18.307 6.20082 14C6.20082 9.69295 9.69234 6.20143 13.9993 6.20143C18.3064 6.20143 21.7979 9.69296 21.7979 14Z" fill="#353B40"/>
<path d="M11.1484 19.6994V9.44477V8.66699H11.9262H15.7083C16.6541 8.66699 17.5104 9.05041 18.1303 9.6703C18.7502 10.2902 19.1336 11.1465 19.1336 12.0923C19.1336 13.038 18.7502 13.8944 18.1303 14.5142C17.5104 15.1341 16.6541 15.5175 15.7083 15.5175V15.5145L12.704 15.5145V19.6994L11.1484 19.6994ZM12.704 10.2225V13.965L15.7084 13.965V13.962C16.2248 13.962 16.6922 13.7527 17.0305 13.4144C17.3688 13.0761 17.5781 12.6087 17.5781 12.0923C17.5781 11.5759 17.3688 11.1084 17.0305 10.7701C16.6922 10.4318 16.2247 10.2226 15.7084 10.2226L12.704 10.2225Z" fill="#353B40"/>
</svg>
