<svg width="28" height="28" viewBox="0 0 28 28" fill="none" xmlns="http://www.w3.org/2000/svg">
<path d="M23.3335 5.13838L18.6157 4.67306C17.9347 4.60589 17.2074 5.07725 16.9875 5.73692L16.0171 8.64838C15.7988 9.3031 16.0278 10.2203 16.4958 10.7206C16.4958 10.7206 17.6586 11.6289 17.3996 12.5905C16.8772 14.5293 14.5295 16.7956 12.5605 17.4174C11.9618 17.6065 10.7769 16.4353 10.7769 16.4353C10.2561 15.986 9.30818 15.797 8.64851 16.0169L5.73705 16.9874C5.08233 17.2056 4.60574 17.9317 4.67319 18.6156L5.1385 23.3334C15.5115 23.3334 23.3335 15.5113 23.3335 5.13838ZM6.19942 22.1302L5.87233 18.814C5.83888 18.4748 6.08142 18.11 6.39763 18.0046L8.97545 17.1453C9.29901 17.0374 9.76591 17.1364 10.0278 17.3581C10.0278 17.3581 11.5988 18.9216 12.914 18.5368C15.3071 17.8367 17.909 15.1982 18.533 12.8958C19.0183 11.1053 17.4204 9.91862 17.4204 9.91862C17.1715 9.68866 17.0583 9.23682 17.1675 8.90928L18.0023 6.40458C18.1115 6.0771 18.4827 5.8395 18.8141 5.87219L22.1304 6.19928C21.6401 15.0387 15.0388 21.6399 6.19942 22.1302Z" fill="#353B40"/>
</svg>
