<svg width="36" height="44" viewBox="0 0 36 44" fill="none" xmlns="http://www.w3.org/2000/svg">
<rect width="36" height="36" fill="#FECD0A"/>
<path d="M17.8135 8.66663C16.9949 8.66663 16.2099 8.99178 15.6312 9.57056C15.0524 10.1493 14.7272 10.9343 14.7272 11.7529V13.6046H11.7644C11.6416 13.604 11.5229 13.6492 11.4316 13.7314C11.3403 13.8135 11.2829 13.9268 11.2706 14.049C9.81392 26.6656 9.81392 26.8137 9.83861 26.8878C9.84177 26.9494 9.85706 27.0098 9.8836 27.0655C9.91014 27.1213 9.94742 27.1712 9.99329 27.2125C10.0392 27.2538 10.0927 27.2856 10.1509 27.3061C10.2091 27.3267 10.2708 27.3355 10.3324 27.3322H25.2945C25.3658 27.3373 25.4373 27.3242 25.5021 27.2939C25.567 27.2637 25.623 27.2174 25.6649 27.1594C25.7139 27.1123 25.7507 27.0539 25.7723 26.9894C25.7938 26.9249 25.7993 26.8561 25.7883 26.789L24.3563 14.049C24.344 13.9268 24.2866 13.8135 24.1953 13.7314C24.104 13.6492 23.9853 13.604 23.8625 13.6046H20.8997V11.7529C20.8997 10.9343 20.5745 10.1493 19.9958 9.57056C19.417 8.99178 18.632 8.66663 17.8135 8.66663ZM15.7148 11.7529C15.7148 11.1963 15.9359 10.6625 16.3295 10.2689C16.7231 9.87533 17.2569 9.65422 17.8135 9.65422C18.3701 9.65422 18.9039 9.87533 19.2974 10.2689C19.691 10.6625 19.9121 11.1963 19.9121 11.7529V13.6046H15.7148V11.7529ZM23.4428 14.5922L24.7513 26.3446H10.8756C11.0484 24.5916 11.715 18.8142 12.1842 14.5922H14.7272V18.2463H15.7148V14.5922H19.9121V18.2463H20.8997V14.5922H23.4428Z" fill="#353B40" stroke="#353B40" stroke-width="0.4"/>
<path d="M0 36H8L4 40L0 44V36Z" fill="#FECD0A"/>
</svg>
