<svg width="36" height="44" viewBox="0 0 36 44" fill="none" xmlns="http://www.w3.org/2000/svg">
<rect width="36" height="36" fill="#F5F5F5"/>
<path d="M18.0001 8.66663C12.8537 8.66663 8.66675 12.8536 8.66675 18C8.66675 23.1464 12.8537 27.3333 18.0001 27.3333C23.1465 27.3333 27.3334 23.1464 27.3334 18C27.3334 12.8536 23.1465 8.66663 18.0001 8.66663ZM14.5309 14.289C15.0358 11.9557 16.3131 10.2636 18.0789 9.60369C20.0889 9.62283 21.9317 10.3485 23.3695 11.5474C21.7362 11.5856 19.0169 11.9996 18.2875 14.2382C16.9006 14.1411 15.6415 14.178 14.5309 14.289ZM24.3355 12.5017C25.2217 13.5214 25.8653 14.7543 26.1789 16.1142C23.6593 15.0936 21.3297 14.5564 19.2535 14.325C20.1327 12.3561 23.5016 12.4471 24.3355 12.5017ZM15.88 9.88183C14.7213 10.9407 13.9065 12.5017 13.5537 14.4099C13.1239 14.4734 12.7207 14.5462 12.3483 14.625C12.2143 13.7883 11.7127 13.2297 11.3281 12.917C12.45 11.448 14.0418 10.362 15.88 9.88183ZM9.60755 18.1442C9.60661 18.0956 9.60008 18.0485 9.60008 18C9.60008 17.4512 9.65701 16.9159 9.75781 16.396C10.0219 16.2836 10.5409 16.082 11.2763 15.8724C11.0173 16.5617 10.4611 17.3266 9.60755 18.1442ZM10.0653 15.2676C10.2567 14.7137 10.5045 14.1882 10.8017 13.6936C11.0579 13.9162 11.3706 14.2872 11.4378 14.8299C11.4383 14.8336 11.4378 14.8374 11.4378 14.8411C10.8862 14.9867 10.4261 15.1365 10.0653 15.2676ZM9.71255 19.309C11.2315 17.9878 12.0995 16.7493 12.3184 15.6111C12.6586 15.536 13.0254 15.465 13.4202 15.402C13.1019 18.8171 14.1944 23.1748 17.3803 26.3687C13.4762 26.0817 10.3127 23.1193 9.71255 19.309ZM18.7449 26.3622C15.1539 23.284 13.9746 18.7182 14.3685 15.2732C15.467 15.1505 16.7289 15.1006 18.1251 15.1874C18.0729 18.3192 22.8473 21.0674 25.3039 22.1332C23.9743 24.4731 21.5584 26.1134 18.7449 26.3622ZM25.7234 21.2984C23.2468 20.2376 19.086 17.713 19.0571 15.2634C21.2313 15.4893 23.6962 16.0633 26.3595 17.2038C26.3847 17.4661 26.4001 17.7312 26.4001 18C26.4001 19.1704 26.1579 20.2848 25.7234 21.2984Z" fill="#353B40" stroke="#353B40" stroke-width="0.3"/>
<path d="M0 36H8L4 40L0 44V36Z" fill="#F5F5F5"/>
</svg>
