<svg width="40" height="48" viewBox="0 0 40 48" fill="none" xmlns="http://www.w3.org/2000/svg">
<rect width="40" height="40" fill="#ED6956"/>
<path d="M17.1255 15.3734L29.1653 8.07628V10.8191L18.5404 17.2585L17.1255 15.3734ZM11.6001 18.7221L15.2311 16.5214L16.6447 18.4074L11.6001 21.4647V18.7221ZM11.6001 23.9049L29.1653 13.2587V16.0016L21.2106 20.8228L22.5569 22.6166L29.1653 18.6114V21.3541L23.972 24.5017L29.6001 32H26.8371L22.0775 25.6499L11.6001 32V29.2574L20.6641 23.764L19.3188 21.9693L11.6001 26.6475V23.9049ZM15.7127 13.4871L11.6001 8V11.6778L13.8192 14.6344L15.7127 13.4871Z" fill="white"/>
<path d="M0 40H8L4 44L0 48V40Z" fill="#ED6956"/>
</svg>
