<svg width="36" height="44" viewBox="0 0 36 44" fill="none" xmlns="http://www.w3.org/2000/svg">
<rect width="36" height="36" fill="#F5F5F5"/>
<path d="M10.4616 26.9743H13.6924V24.4615H22.3078V26.9743H25.5385V19.0769H27.3334V18H25.5385V11.1794C25.5385 10.513 25.2738 9.87386 24.8026 9.40261C24.3313 8.93137 23.6922 8.66663 23.0257 8.66663H12.9744C12.308 8.66663 11.6689 8.93137 11.1976 9.40261C10.7264 9.87386 10.4616 10.513 10.4616 11.1794V18H8.66675V19.0769H10.4616V26.9743ZM12.6155 25.8974H11.5385V24.4615H12.6155V25.8974ZM24.4616 25.8974H23.3847V24.4615H24.4616V25.8974ZM12.9744 9.74355H23.0257C23.4065 9.74355 23.7718 9.89483 24.0411 10.1641C24.3103 10.4334 24.4616 10.7986 24.4616 11.1794V11.5384H11.5385V11.1794C11.5385 10.7986 11.6898 10.4334 11.9591 10.1641C12.2284 9.89483 12.5936 9.74355 12.9744 9.74355ZM11.5385 12.6153H24.4616V18H11.5385V12.6153ZM24.4616 19.0769V23.3846H11.5385V19.0769H24.4616Z" fill="#353B40"/>
<path d="M14.0513 21.5897V20.5128H12.9744V21.5897H14.0513Z" fill="#353B40"/>
<path d="M23.0252 21.5897V20.5128H21.9483V21.5897H23.0252Z" fill="#353B40"/>
<path d="M10.4616 26.9743H13.6924V24.4615H22.3078V26.9743H25.5385V19.0769H27.3334V18H25.5385V11.1794C25.5385 10.513 25.2738 9.87386 24.8026 9.40261C24.3313 8.93137 23.6922 8.66663 23.0257 8.66663H12.9744C12.308 8.66663 11.6689 8.93137 11.1976 9.40261C10.7264 9.87386 10.4616 10.513 10.4616 11.1794V18H8.66675V19.0769H10.4616V26.9743ZM12.6155 25.8974H11.5385V24.4615H12.6155V25.8974ZM24.4616 25.8974H23.3847V24.4615H24.4616V25.8974ZM12.9744 9.74355H23.0257C23.4065 9.74355 23.7718 9.89483 24.0411 10.1641C24.3103 10.4334 24.4616 10.7986 24.4616 11.1794V11.5384H11.5385V11.1794C11.5385 10.7986 11.6898 10.4334 11.9591 10.1641C12.2284 9.89483 12.5936 9.74355 12.9744 9.74355ZM11.5385 12.6153H24.4616V18H11.5385V12.6153ZM24.4616 19.0769V23.3846H11.5385V19.0769H24.4616Z" stroke="#353B40" stroke-width="0.2"/>
<path d="M14.0513 21.5897V20.5128H12.9744V21.5897H14.0513Z" stroke="#353B40" stroke-width="0.2"/>
<path d="M23.0252 21.5897V20.5128H21.9483V21.5897H23.0252Z" stroke="#353B40" stroke-width="0.2"/>
<path d="M0 36H8L4 40L0 44V36Z" fill="#F5F5F5"/>
</svg>
