<svg width="36" height="44" viewBox="0 0 36 44" fill="none" xmlns="http://www.w3.org/2000/svg">
<rect width="36" height="36" fill="#F5F5F5"/>
<path d="M12.4271 8.66663C12.4271 8.98877 12.3445 9.11849 12.2076 9.3334C12.0353 9.60413 11.8208 9.94112 11.8208 10.5715C11.8208 11.2019 12.0353 11.5389 12.2076 11.8096C12.3445 12.0247 12.4271 12.1544 12.4271 12.4764C12.4271 12.7984 12.3445 12.9281 12.2076 13.143C12.0353 13.4138 11.8208 13.7507 11.8208 14.381H12.9575C12.9575 14.059 13.0401 13.9293 13.1768 13.7144C13.3493 13.4437 13.5637 13.1067 13.5637 12.4764C13.5637 11.8461 13.3493 11.5091 13.177 11.2384C13.0401 11.0233 12.9575 10.8936 12.9575 10.5715C12.9575 10.2494 13.0401 10.1197 13.177 9.90463C13.3493 9.63389 13.5637 9.29696 13.5637 8.66663H12.4271ZM15.4605 8.66663C15.4605 8.98877 15.378 9.11849 15.2411 9.3334C15.0688 9.60413 14.8543 9.94112 14.8543 10.5715C14.8543 11.2019 15.0688 11.5389 15.2411 11.8096C15.378 12.0247 15.4605 12.1544 15.4605 12.4764C15.4605 12.7984 15.3779 12.9281 15.2412 13.143C15.0687 13.4138 14.8543 13.7507 14.8543 14.381H15.991C15.991 14.059 16.0736 13.9293 16.2105 13.7144C16.3827 13.4437 16.5972 13.1067 16.5972 12.4764C16.5972 11.8461 16.3827 11.5091 16.2105 11.2384C16.0737 11.0233 15.991 10.8936 15.991 10.5715C15.991 10.2494 16.0736 10.1197 16.2105 9.90463C16.3827 9.63389 16.5972 9.29696 16.5972 8.66663H15.4605ZM18.4942 8.66663C18.4942 8.98877 18.4116 9.11849 18.2747 9.3334C18.1024 9.60413 17.8879 9.94112 17.8879 10.5715C17.8879 11.2019 18.1024 11.5389 18.2747 11.8096C18.4114 12.0247 18.4942 12.1544 18.4942 12.4764C18.4942 12.7984 18.4116 12.9281 18.2747 13.143C18.1024 13.4138 17.8879 13.7507 17.8879 14.381H19.0246C19.0246 14.059 19.1072 13.9293 19.244 13.7144C19.4162 13.4437 19.6309 13.1067 19.6309 12.4764C19.6309 11.8461 19.4164 11.5091 19.244 11.2384C19.1072 11.0233 19.0246 10.8936 19.0246 10.5715C19.0246 10.2494 19.1072 10.1197 19.244 9.90463C19.4164 9.63389 19.6309 9.29696 19.6309 8.66663H18.4942ZM8.66675 14.3094V14.8563C8.66675 23.3021 10.9891 27.0467 11.088 27.1524L11.2573 27.3333H20.1943L20.3636 27.1524C20.4174 27.0949 21.1314 26.3032 21.7701 24.2288H23.3542C25.5483 24.2288 27.3334 22.5111 27.3334 20.3998C27.3334 18.2883 25.5482 16.5707 23.354 16.5707H22.7815C22.7836 16.391 22.7848 15.0417 22.7848 14.8563V14.3094H8.66675ZM9.80698 15.4032H21.6447C21.6154 17.6502 21.3944 21.8036 20.5786 24.2423C20.2138 25.3325 19.8465 25.957 19.6535 26.2395H11.7964C11.6126 25.9711 11.2666 25.385 10.9121 24.3572C10.0651 21.9014 9.83672 17.6938 9.80698 15.4032ZM22.754 17.6645H23.354C24.9215 17.6645 26.1967 18.8915 26.1967 20.3998C26.1967 21.908 24.9215 23.135 23.354 23.135H22.0672C22.1481 22.7961 22.2253 22.4319 22.2972 22.0413H23.354C24.2947 22.0413 25.0599 21.3048 25.0599 20.3998C25.0599 19.4946 24.2947 18.7583 23.354 18.7583H22.6963C22.7201 18.4072 22.7395 18.0427 22.754 17.6645ZM22.6044 19.8519H23.354C23.6679 19.8519 23.9234 20.0978 23.9234 20.3997C23.9234 20.7017 23.6679 20.9474 23.354 20.9474H22.4734C22.5218 20.5999 22.5658 20.235 22.6044 19.8519Z" fill="#353B40" stroke="#353B40" stroke-width="0.3"/>
<path d="M0 36H8L4 40L0 44V36Z" fill="#F5F5F5"/>
</svg>
