<svg width="36" height="44" viewBox="0 0 36 44" fill="none" xmlns="http://www.w3.org/2000/svg">
<rect width="36" height="36" fill="#FECD0A"/>
<path d="M26.9627 20.8681V14.8668L26.9528 14.8607L17.2266 8.66663L7.5 14.8605L11.0775 17.1386V22.2507L17.2266 26.1666L23.3757 22.2507V17.1386L25.9379 15.507V20.8681C25.4548 20.9993 25.0338 21.3115 24.7538 21.7459C24.4738 22.1804 24.3541 22.7074 24.4169 23.2281C24.4798 23.7489 24.721 24.2277 25.0953 24.5747C25.4696 24.9217 25.9514 25.1131 26.4503 25.1131C26.9492 25.1131 27.4309 24.9217 27.8053 24.5747C28.1796 24.2277 28.4208 23.7489 28.4837 23.2281C28.5465 22.7074 28.4267 22.1804 28.1467 21.7459C27.8667 21.3115 27.4458 20.9993 26.9627 20.8681ZM17.2266 9.92719L24.1269 14.3213L25.0953 14.8605L24.1269 15.3997L17.2266 19.7937L9.47965 14.8605L17.2266 9.92719ZM22.3509 21.643L17.2266 24.906L12.1023 21.643V17.7912L17.2266 21.0543L22.3509 17.7912V21.643ZM26.4503 24.0267C26.2476 24.0267 26.0494 23.9634 25.8809 23.845C25.7124 23.7265 25.581 23.558 25.5034 23.361C25.4259 23.1639 25.4056 22.9471 25.4451 22.7379C25.4847 22.5287 25.5823 22.3366 25.7256 22.1858C25.8689 22.035 26.0515 21.9323 26.2503 21.8907C26.4491 21.849 26.6552 21.8704 26.8425 21.952C27.0297 22.0336 27.1898 22.1719 27.3024 22.3492C27.415 22.5265 27.4751 22.735 27.4751 22.9483C27.4748 23.2342 27.3668 23.5083 27.1746 23.7105C26.9825 23.9126 26.722 24.0264 26.4503 24.0267Z" fill="#353B40" stroke="#353B40" stroke-width="0.4"/>
<path d="M0 36H8L4 40L0 44V36Z" fill="#FECD0A"/>
</svg>
