<svg width="36" height="44" viewBox="0 0 36 44" fill="none" xmlns="http://www.w3.org/2000/svg">
<rect width="36" height="36" fill="#F5F5F5"/>
<path d="M25.1459 22.8914V20.201H23.3959V17.5106H21.6459V14.8203H19.7501V8.66663H16.2501V14.8203H14.3542V17.5106H12.6042V20.201H10.8542V22.8914H8.66675V26.4567H27.3334V22.8914H25.1459ZM17.1251 9.54163H18.8751V14.8203H17.1251V9.54163ZM15.2292 15.6953C18.718 15.6953 18.4368 15.6953 20.7709 15.6953V17.5106H15.2292V15.6953ZM13.4792 18.3856C18.3093 18.3856 17.6722 18.3856 22.5209 18.3856V20.201H13.4792V18.3856ZM11.7292 21.076C15.9453 21.076 16.8304 21.076 24.2709 21.076V22.8914H11.7292V21.076ZM26.4584 25.5817H9.54175V23.7664C12.278 23.7664 23.8086 23.7664 26.4584 23.7664V25.5817Z" fill="#353B40" stroke="#353B40" stroke-width="0.4"/>
<path d="M0 36H8L4 40L0 44V36Z" fill="#F5F5F5"/>
</svg>
