<svg width="36" height="44" viewBox="0 0 36 44" fill="none" xmlns="http://www.w3.org/2000/svg">
<rect width="36" height="36" fill="#F5F5F5"/>
<path d="M27.3334 25.9343H25.3773V24.1356H26.7264V23.2362H25.827V18.9643H17.5929V23.2362H16.6935V24.1356H18.0426V25.9343H13.3209V21.9996C15.322 21.6174 16.8059 18.8294 16.8059 15.3444C16.8059 11.8593 15.0747 8.66663 12.8712 8.66663C10.6678 8.66663 8.93656 11.612 8.93656 15.3444C8.93656 19.0767 10.4205 21.6174 12.4216 21.9996V25.9343H8.66675V26.8336H27.3334V25.9343ZM9.83591 15.3444C9.83591 12.2191 11.2299 9.56598 12.8712 9.56598C14.5126 9.56598 15.9066 12.2191 15.9066 15.3444C15.9066 18.4696 14.7599 20.6281 13.3209 21.0553V17.0756H12.4216V21.0553C10.9826 20.6281 9.83591 18.1998 9.83591 15.3444ZM18.4922 19.8636H24.9276V23.2362H18.4922V19.8636ZM18.9419 24.1356H24.478V25.9343H18.9419V24.1356Z" fill="#353B40" stroke="#353B40" stroke-width="0.4"/>
<path d="M0 36H8L4 40L0 44V36Z" fill="#F5F5F5"/>
</svg>
