<svg width="36" height="44" viewBox="0 0 36 44" fill="none" xmlns="http://www.w3.org/2000/svg">
<rect width="36" height="36" fill="#F5F5F5"/>
<path d="M15.2199 8.66663V9.26237V15.2198H9.26249H8.66675V15.8156V20.1844V20.7801H9.26249H15.2199V26.7375V27.3333H15.8157H20.1845H20.7802V26.7375V20.7801H26.7377H27.3334V20.1844V15.8156V15.2198H26.7377H20.7802V9.26237V8.66663H20.1845H15.8157H15.2199ZM16.4114 9.85812H19.5887V15.8156V16.4113H20.1845H26.1419V19.5886H20.1845H19.5887V20.1844V26.1418H16.4114V20.1844V19.5886H15.8157H9.85824V16.4113H15.8157H16.4114V15.8156V9.85812Z" fill="#353B40" stroke="#353B40" stroke-width="0.3"/>
<path d="M0 36H8L4 40L0 44V36Z" fill="#F5F5F5"/>
</svg>
