<svg width="48" height="37" viewBox="0 0 48 37" fill="none" xmlns="http://www.w3.org/2000/svg">
<path d="M0.0189874 15.5464L0.0189819 36.2325L21.6076 36.2325L21.6076 14.6444L11.6581 14.6444C11.4954 11.9982 11.5328 5.71832 21.6076 6.01448L21.6076 0.00869674C-1.45798 -0.394987 0.0189879 13.4862 0.0189874 15.5464ZM2.72668 15.5464C2.72668 2.57094 14.4805 3.23143 18.8999 2.74663L18.8999 3.38167C15.5826 3.66967 7.25886 5.35496 9.21534 17.3517L18.8999 17.3517L18.8999 33.5249L2.72667 33.5249L2.72668 15.5464ZM26.4114 36.2325L48 36.2325L48 14.6444L38.0505 14.6444C37.8883 11.9982 37.9257 5.71832 48 6.01448L48 0.00869751C24.9349 -0.395467 26.4114 13.4862 26.4114 15.5464L26.4114 36.2325ZM29.1191 15.5464C29.1191 2.57095 40.8729 3.23143 45.2923 2.74663L45.2923 3.38167C41.975 3.66967 33.6518 5.35496 35.6078 17.3517L45.2923 17.3517L45.2923 33.5249L29.1191 33.5249L29.1191 15.5464Z" fill="#FECD0A"/>
</svg>
