<svg width="28" height="28" viewBox="0 0 28 28" fill="none" xmlns="http://www.w3.org/2000/svg">
<path d="M21.1452 18.8914V16.201H19.3952V13.5106H17.6452V10.8203H15.7493V4.66663H12.2493V10.8203H10.3535V13.5106H8.60352V16.201H6.85352V18.8914H4.66602V22.4567H23.3327V18.8914H21.1452ZM13.1243 5.54163H14.8743V10.8203H13.1243V5.54163ZM11.2285 11.6953C14.7172 11.6953 14.4361 11.6953 16.7702 11.6953V13.5106H11.2285V11.6953ZM9.47852 14.3856C14.3086 14.3856 13.6715 14.3856 18.5202 14.3856V16.201H9.47852V14.3856ZM7.72852 17.076C11.9446 17.076 12.8297 17.076 20.2702 17.076V18.8914H7.72852V17.076ZM22.4577 21.5817H5.54102V19.7664C8.27729 19.7664 19.8079 19.7664 22.4577 19.7664V21.5817Z" fill="#353B40" stroke="#353B40" stroke-width="0.4"/>
</svg>
