<svg width="36" height="36" viewBox="0 0 36 36" fill="none" xmlns="http://www.w3.org/2000/svg">
<g clip-path="url(#clip0_645_1824)">
<path fill-rule="evenodd" clip-rule="evenodd" d="M17.7427 25.4442H19.1775C19.1775 25.4442 19.6116 25.3971 19.8323 25.1618C20.0531 24.9265 20.0292 24.5412 20.0292 24.5412C20.0292 24.5412 20.0009 22.6442 20.8943 22.3633C21.7877 22.0824 22.9063 24.1971 24.104 25.0103C25.0109 25.6236 25.6985 25.4898 25.6985 25.4898L28.9037 25.4456C28.9037 25.4456 30.5802 25.3442 29.7852 24.0442C29.7196 23.9383 29.3228 23.0824 27.3988 21.3251C25.3897 19.4839 25.6627 19.7809 28.0834 16.6001C29.557 14.6618 30.1477 13.4795 29.9627 12.9736C29.7867 12.4912 28.7024 12.6177 28.7024 12.6177L25.0914 12.6398C24.9316 12.6211 24.7698 12.6493 24.6261 12.7206C24.4892 12.8197 24.3799 12.9512 24.3084 13.103C23.9344 14.0593 23.4887 14.9869 22.9749 15.878C21.3701 18.5677 20.7272 18.7103 20.4677 18.5427C19.8562 18.153 20.0098 16.978 20.0098 16.1442C20.0098 13.5368 20.411 12.4501 19.2283 12.1736C18.827 12.0751 18.5451 12.0133 17.5413 12.0001C16.2542 11.9898 15.1639 12.0001 14.5464 12.3045C14.1362 12.503 13.8185 12.9442 14.0124 12.9692C14.2511 13.0001 14.791 13.1162 15.0774 13.4971C15.4473 13.9927 15.4338 15.1074 15.4338 15.1074C15.4338 15.1074 15.6471 18.1765 14.9387 18.5589C14.4524 18.8206 13.7842 18.2868 12.3524 15.8456C11.8659 14.9964 11.4354 14.1171 11.0637 13.2133C10.9975 13.0596 10.8952 12.9235 10.7654 12.8162C10.5974 12.7065 10.4087 12.6315 10.2105 12.5956L6.78005 12.6177C6.78005 12.6177 6.26697 12.6324 6.07904 12.853C5.9105 13.0501 6.06562 13.4559 6.06562 13.4559C6.06562 13.4559 8.74886 19.6471 11.7901 22.7692C14.5777 25.6309 17.7427 25.4442 17.7427 25.4442Z" fill="#353B40"/>
</g>
<defs>
<clipPath id="clip0_645_1824">
<rect width="24" height="13.5" fill="white" transform="translate(6 12)"/>
</clipPath>
</defs>
</svg>
