<svg width="70" height="16" viewBox="0 0 70 16" fill="none" xmlns="http://www.w3.org/2000/svg">
<path d="M0.912109 3.5416H2.20757L4.98885 11.5103L8.29121 3L11.4199 11.5103L14.5011 3.5416H15.797L11.3725 14.7293L8.27528 6.21901L4.957 14.7293L0.912109 3.5416ZM22.7494 3.5416V4.65732H18.4516V7.81283H22.6231V8.92855H18.4516V13.056H22.7494V14.1717H17.282V3.5416H22.7494ZM24.8985 3.5416H26.7947C27.8482 3.5416 28.6537 3.76497 29.2123 4.21095C29.8441 4.69977 30.1604 5.433 30.1604 6.41025C30.1604 7.32402 29.8126 8.02014 29.1175 8.49825C29.7914 8.66807 30.2946 9.01078 30.6265 9.52599C30.9583 10.0412 31.124 10.5912 31.124 11.1757C31.124 11.6538 31.0216 12.0944 30.8161 12.4983C30.6105 12.9018 30.3553 13.2262 30.0496 13.4706C29.4596 13.938 28.6169 14.1717 27.5213 14.1717H24.8985V3.5416ZM26.0677 4.65732V8.21138H26.9525C27.1106 8.21138 27.2634 8.20335 27.4109 8.18729C27.5585 8.17122 27.7348 8.12877 27.9404 8.05992C28.1455 7.99069 28.3245 7.89775 28.4774 7.78109C28.6302 7.66405 28.7591 7.48887 28.8645 7.25517C28.97 7.02109 29.0227 6.75028 29.0227 6.44238C29.0227 6.11306 28.9594 5.82849 28.8331 5.58944C28.7064 5.35038 28.5642 5.17253 28.4064 5.05587C28.2483 4.93883 28.0587 4.84856 27.8376 4.78468C27.6161 4.72119 27.4477 4.68371 27.3317 4.67338C27.216 4.66267 27.1 4.65732 26.9843 4.65732H26.0677ZM26.0677 9.26322V13.056H27.4109C28.2642 13.056 28.8805 12.9072 29.2597 12.61C29.7231 12.27 29.9548 11.7811 29.9548 11.1435C29.9548 10.4317 29.6545 9.91116 29.0542 9.58184C28.6749 9.36917 28.0799 9.26322 27.2687 9.26322H26.0677ZM38.9142 5.02374L37.982 5.64528C37.8133 5.31596 37.6081 5.05051 37.3658 4.84856C37.0495 4.60415 36.6547 4.48214 36.1807 4.48214C35.6539 4.48214 35.2273 4.63322 34.9008 4.93615C34.5743 5.23908 34.4108 5.63495 34.4108 6.12339C34.4108 6.48484 34.5424 6.79274 34.806 7.04786C35.0164 7.26052 35.3854 7.48351 35.9118 7.71721L36.9232 8.16357C37.6711 8.4929 38.2138 8.82757 38.5509 9.1676C39.0564 9.67746 39.3094 10.32 39.3094 11.0957C39.3094 12.0626 38.9931 12.849 38.3613 13.4545C37.7291 14.06 36.9338 14.3629 35.9751 14.3629C35.0271 14.3629 34.2633 14.0761 33.6838 13.5023C33.2098 13.0349 32.8833 12.408 32.7043 11.6216L33.842 11.303C33.9155 11.8343 34.1264 12.2856 34.4741 12.6578C34.8636 13.0506 35.3695 13.2472 35.9911 13.2472C36.6653 13.2472 37.1864 13.043 37.5554 12.6337C37.924 12.2248 38.1083 11.728 38.1083 11.1435C38.1083 10.6337 37.9346 10.2194 37.5869 9.90045C37.3867 9.7092 36.9653 9.46479 36.3229 9.1676L35.3748 8.72124C34.732 8.42367 34.2633 8.13144 33.9683 7.84458C33.484 7.37718 33.2416 6.7981 33.2416 6.10771C33.2416 5.28957 33.5181 4.62825 34.071 4.12336C34.6239 3.61886 35.3327 3.36642 36.1962 3.36642C36.8497 3.36642 37.4132 3.52592 37.8872 3.84453C38.3192 4.1314 38.6612 4.52459 38.9142 5.02374ZM42.6276 3.5416V7.86064H48.0317V3.5416H49.2009V14.1717H48.0317V8.97636H42.6276V14.1717H41.4581V3.5416H42.6276ZM60.728 12.7852C59.6692 13.837 58.3711 14.3629 56.8329 14.3629C55.2951 14.3629 53.9966 13.837 52.9378 12.7852C51.8794 11.7333 51.35 10.4264 51.35 8.86467C51.35 7.29227 51.882 5.98263 52.9458 4.93615C54.0099 3.88966 55.3054 3.36642 56.8329 3.36642C58.3605 3.36642 59.6563 3.88966 60.72 4.93615C61.7842 5.98263 62.3158 7.29227 62.3158 8.86467C62.3158 10.4264 61.7868 11.7333 60.728 12.7852ZM59.8668 5.75697C59.0347 4.90708 58.0233 4.48214 56.8329 4.48214C55.6425 4.48214 54.6315 4.90708 53.7991 5.75697C52.967 6.60685 52.5506 7.64301 52.5506 8.86467C52.5506 10.0863 52.967 11.1225 53.7991 11.9724C54.6315 12.8223 55.6425 13.2472 56.8329 13.2472C58.0233 13.2472 59.0347 12.8223 59.8668 11.9724C60.6992 11.1225 61.1152 10.0863 61.1152 8.86467C61.1152 7.64301 60.6992 6.60685 59.8668 5.75697ZM64.465 3.5416H66.377C67.5777 3.5416 68.4628 3.79137 69.0317 4.29089C69.6741 4.8432 69.9953 5.60282 69.9953 6.56975C69.9953 7.3986 69.7188 8.10238 69.1659 8.68146C68.613 9.26055 67.7779 9.55009 66.6615 9.55009H65.6341V14.1717H64.465V3.5416ZM65.6341 4.65732V8.43437H66.5981C67.2933 8.43437 67.8386 8.26455 68.2338 7.92452C68.6285 7.58449 68.8261 7.11173 68.8261 6.50588C68.8261 5.2735 68.0521 4.65732 66.5033 4.65732H65.6341Z" fill="#292929" fill-opacity="0.219608"/>
<path d="M0 3.55515H1.29584L4.07674 11.5239L7.3791 3.01355L10.5078 11.5239L13.589 3.55515H14.8849L10.4604 14.7429L7.36355 6.23256L4.04527 14.7429L0 3.55515ZM21.8373 3.55515V4.67087H17.5395V7.82638H21.711V8.9421H17.5395V13.0695H21.8373V14.1852H16.3703V3.55515H21.8373ZM23.9864 3.55515H25.8826C26.9361 3.55515 27.742 3.77852 28.3002 4.2245C28.9324 4.71332 29.2483 5.44655 29.2483 6.4238C29.2483 7.33756 28.9005 8.03369 28.2054 8.5118C28.8797 8.68162 29.3825 9.02433 29.7143 9.53954C30.0462 10.0548 30.2123 10.6048 30.2123 11.1892C30.2123 11.6673 30.1095 12.1079 29.904 12.5118C29.6984 12.9158 29.4432 13.2397 29.1375 13.4841C28.5478 13.9515 27.7052 14.1852 26.6096 14.1852H23.9864V3.55515ZM25.1556 4.67087V8.22493H26.0407C26.1985 8.22493 26.3513 8.2169 26.4988 8.20084C26.6464 8.18516 26.8227 8.14232 27.0282 8.07347C27.2338 8.00424 27.4128 7.91129 27.5652 7.79464C27.7181 7.6776 27.8474 7.50242 27.9524 7.26872C28.0579 7.03502 28.1106 6.76383 28.1106 6.45593C28.1106 6.12661 28.0472 5.84242 27.921 5.60337C27.7947 5.36393 27.6525 5.18608 27.4943 5.06942C27.3362 4.95238 27.1466 4.86211 26.9255 4.79823C26.7044 4.73474 26.5356 4.69726 26.42 4.68693C26.3039 4.67622 26.1882 4.67087 26.0722 4.67087H25.1556ZM25.1556 9.27677V13.0695H26.4988C27.3521 13.0695 27.9684 12.9211 28.3476 12.6235C28.811 12.2835 29.0427 11.7947 29.0427 11.1571C29.0427 10.4453 28.7428 9.92471 28.1421 9.59538C27.7628 9.38272 27.1678 9.27677 26.3566 9.27677H25.1556ZM38.0021 5.03729L37.0699 5.65883C36.9016 5.32951 36.696 5.06406 36.4537 4.86211C36.1378 4.6177 35.7426 4.49569 35.2686 4.49569C34.7418 4.49569 34.3152 4.64677 33.9887 4.9497C33.6622 5.25263 33.4987 5.6485 33.4987 6.13694C33.4987 6.49839 33.6307 6.80629 33.8939 7.06141C34.1047 7.27407 34.4733 7.49706 35.0001 7.73076L36.0111 8.17712C36.7593 8.50644 37.3016 8.84112 37.6388 9.18115C38.1443 9.69101 38.3972 10.334 38.3972 11.1093C38.3972 12.0762 38.0813 12.8626 37.4492 13.4681C36.817 14.0735 36.0217 14.3765 35.063 14.3765C34.115 14.3765 33.3512 14.0896 32.7721 13.5159C32.2981 13.0485 31.9715 12.4216 31.7922 11.6352L32.9299 11.3166C33.0038 11.8478 33.2143 12.2996 33.562 12.6713C33.9519 13.0645 34.4574 13.2608 35.079 13.2608C35.7532 13.2608 36.2747 13.0565 36.6433 12.6472C37.0119 12.2384 37.1962 11.7415 37.1962 11.1571C37.1962 10.6472 37.0225 10.233 36.6748 9.914C36.4749 9.72275 36.0532 9.47873 35.4108 9.18115L34.4627 8.73479C33.8203 8.43721 33.3512 8.14499 33.0565 7.85813C32.5719 7.39073 32.3295 6.81164 32.3295 6.12126C32.3295 5.30312 32.606 4.6418 33.1589 4.13691C33.7122 3.63241 34.4206 3.37997 35.2845 3.37997C35.9375 3.37997 36.5011 3.53947 36.9751 3.85808C37.4071 4.14495 37.7495 4.53814 38.0021 5.03729ZM41.7155 3.55515V7.87419H47.1196V3.55515H48.2888V14.1852H47.1196V8.98991H41.7155V14.1852H40.5464V3.55515H41.7155ZM59.8159 12.7987C58.7575 13.8506 57.459 14.3765 55.9208 14.3765C54.383 14.3765 53.0845 13.8506 52.0261 12.7987C50.9673 11.7469 50.4379 10.4399 50.4379 8.87822C50.4379 7.30582 50.9699 5.99618 52.0337 4.9497C53.0978 3.90321 54.3936 3.37997 55.9208 3.37997C57.4483 3.37997 58.7442 3.90321 59.8079 4.9497C60.8721 5.99618 61.4041 7.30582 61.4041 8.87822C61.4041 10.4399 60.8747 11.7469 59.8159 12.7987ZM58.9547 5.77052C58.1226 4.92063 57.1112 4.49569 55.9208 4.49569C54.7304 4.49569 53.7194 4.92063 52.8869 5.77052C52.0549 6.6204 51.6389 7.65656 51.6389 8.87822C51.6389 10.0999 52.0549 11.136 52.8869 11.9859C53.7194 12.8358 54.7304 13.2608 55.9208 13.2608C57.1112 13.2608 58.1226 12.8358 58.9547 11.9859C59.7871 11.136 60.2031 10.0999 60.2031 8.87822C60.2031 7.65656 59.7871 6.6204 58.9547 5.77052ZM63.5528 3.55515H65.4649C66.666 3.55515 67.5507 3.80492 68.1196 4.30444C68.7624 4.85675 69.0836 5.61637 69.0836 6.5833C69.0836 7.41215 68.8071 8.11593 68.2538 8.69501C67.7009 9.2741 66.8662 9.56364 65.7494 9.56364H64.7224V14.1852H63.5528V3.55515ZM64.7224 4.67087V8.44792H65.686C66.3815 8.44792 66.9265 8.2781 67.3217 7.93807C67.7168 7.59804 67.914 7.12528 67.914 6.51942C67.914 5.28705 67.14 4.67087 65.5912 4.67087H64.7224Z" fill="#353B40"/>
</svg>
