<svg width="48" height="48" viewBox="0 0 48 48" fill="none" xmlns="http://www.w3.org/2000/svg">
<path d="M22.9787 32.9216V37.8752H17.617V40H30.383V37.8752H25.0213V32.9216C28.1042 32.6477 30.9662 31.1455 33.0099 28.7288C35.0535 26.3121 36.1209 23.1676 35.9891 19.9518C35.8573 16.7359 34.5366 13.6973 32.3026 11.4703C30.0686 9.24328 27.0941 8 24 8C20.9059 8 17.9314 9.24328 15.6974 11.4703C13.4634 13.6973 12.1427 16.7359 12.0109 19.9518C11.8791 23.1676 12.9465 26.3121 14.9901 28.7288C17.0338 31.1455 19.8958 32.6477 22.9787 32.9216ZM24 10.1274C26.5548 10.1236 29.0133 11.1415 30.8669 12.9705C32.7205 14.7996 33.8274 17.2998 33.9585 19.9541C34.0897 22.6083 33.2352 25.2135 31.5717 27.2307C29.9082 29.2478 27.563 30.5227 25.0213 30.7915V26.5949L28.7336 23.4342L27.4366 21.814L25.0213 23.8485V16.4381H22.9787V20.2682L20.4255 18.0955L19.1285 19.7423L22.9787 23.0145V30.7915C20.437 30.5227 18.0918 29.2478 16.4283 27.2307C14.7648 25.2135 13.9103 22.6083 14.0415 19.9541C14.1726 17.2998 15.2795 14.7996 17.1331 12.9705C18.9867 11.1415 21.4452 10.1236 24 10.1274Z" fill="#353B40" stroke="#353B40" stroke-width="0.2"/>
</svg>
